<?xml version="1.0" encoding="UTF-8" standalone="no"?>
<!-- Created with Inkscape (http://www.inkscape.org/) -->

<svg
   width="105mm"
   height="109mm"
   viewBox="0 0 105 109"
   version="1.1"
   id="svg1"
   inkscape:version="1.4.2 (ebf0e940, 2025-05-08)"
   sodipodi:docname="fedlearning.svg"
   xml:space="preserve"
   xmlns:inkscape="http://www.inkscape.org/namespaces/inkscape"
   xmlns:sodipodi="http://sodipodi.sourceforge.net/DTD/sodipodi-0.dtd"
   xmlns="http://www.w3.org/2000/svg"
   xmlns:svg="http://www.w3.org/2000/svg"
   xmlns:rdf="http://www.w3.org/1999/02/22-rdf-syntax-ns#"
   xmlns:cc="http://creativecommons.org/ns#"
   xmlns:dc="http://purl.org/dc/elements/1.1/"
   xmlns:ns5="http://www.iki.fi/pav/software/textext/"><sodipodi:namedview
     id="namedview1"
     pagecolor="#ffffff"
     bordercolor="#999999"
     borderopacity="1"
     inkscape:showpageshadow="2"
     inkscape:pageopacity="0"
     inkscape:pagecheckerboard="0"
     inkscape:deskcolor="#d1d1d1"
     inkscape:document-units="mm"
     showguides="true"
     inkscape:zoom="1.6084847"
     inkscape:cx="142.99172"
     inkscape:cy="249.92466"
     inkscape:window-width="1680"
     inkscape:window-height="997"
     inkscape:window-x="193"
     inkscape:window-y="1105"
     inkscape:window-maximized="0"
     inkscape:current-layer="layer3"
     inkscape:lockguides="true"
     showgrid="true"><sodipodi:guide
       position="0,138"
       orientation="0,1"
       id="guide1"
       inkscape:locked="true"
       inkscape:label=""
       inkscape:color="rgb(0,134,229)" /><sodipodi:guide
       position="200,72.416357"
       orientation="-1,0"
       id="guide2"
       inkscape:locked="true"
       inkscape:label=""
       inkscape:color="rgb(0,134,229)" /><sodipodi:guide
       position="210,10"
       orientation="0,1"
       id="guide3"
       inkscape:locked="true"
       inkscape:label=""
       inkscape:color="rgb(0,134,229)" /><sodipodi:guide
       position="10,163.52203"
       orientation="-1,0"
       id="guide4"
       inkscape:locked="true"
       inkscape:label=""
       inkscape:color="rgb(0,134,229)" /><sodipodi:guide
       position="105,177.0574"
       orientation="-1,0"
       id="guide5"
       inkscape:locked="true"
       inkscape:label=""
       inkscape:color="rgb(0,134,229)" /><sodipodi:guide
       position="-9.685798,74.000001"
       orientation="0,1"
       id="guide6"
       inkscape:locked="true"
       inkscape:label=""
       inkscape:color="rgb(0,134,229)" /><inkscape:grid
       id="grid6"
       units="cm"
       originx="0"
       originy="0"
       spacingx="0.26458333"
       spacingy="0.26458334"
       empcolor="#0099e5"
       empopacity="0.30196078"
       color="#0099e5"
       opacity="0.14901961"
       empspacing="0"
       enabled="false"
       visible="true" /></sodipodi:namedview><title
     id="title7">Figure</title><defs
     id="defs1"><rect
       x="40.116871"
       y="12.954406"
       width="161.72113"
       height="13.790174"
       id="rect5" /><rect
       x="35.93803"
       y="6.6861448"
       width="127.45464"
       height="23.401506"
       id="rect4" /></defs><g
     inkscape:label="Layer 1"
     inkscape:groupmode="layer"
     id="layer1"><text
       xml:space="preserve"
       transform="matrix(0.26458333,0,0,0.26458333,212.21056,2.3058468)"
       id="text4"
       style="font-style:normal;font-variant:normal;font-weight:normal;font-stretch:normal;font-size:15.1111px;font-family:Roboto;-inkscape-font-specification:'Roboto, Normal';font-variant-ligatures:normal;font-variant-caps:normal;font-variant-numeric:normal;font-variant-east-asian:normal;text-align:start;writing-mode:lr-tb;direction:ltr;white-space:pre;shape-inside:url(#rect4);display:inline;fill:#dedede;fill-opacity:1;stroke:none;stroke-width:0;stroke-dasharray:none" /><text
       xml:space="preserve"
       transform="matrix(0.26458333,0,0,0.26458333,212.21056,2.3058468)"
       id="text5"
       style="font-style:normal;font-variant:normal;font-weight:normal;font-stretch:normal;font-size:15.1111px;font-family:Roboto;-inkscape-font-specification:'Roboto, Normal';font-variant-ligatures:normal;font-variant-caps:normal;font-variant-numeric:normal;font-variant-east-asian:normal;text-align:start;writing-mode:lr-tb;direction:ltr;white-space:pre;shape-inside:url(#rect5);display:inline;fill:#dedede;fill-opacity:1;stroke:none;stroke-width:0;stroke-dasharray:none" /><g
       id="g24"
       transform="matrix(0.75919298,0,0,0.92018198,-32.488843,-47.429396)"
       style="display:inline"><g
         style="fill:#000000;stroke-width:0.988898;stroke-dasharray:none"
         id="g1"
         transform="matrix(0.70357708,0,0,0.59547932,103.69361,72.013803)"><g
           id="g2"><rect
             style="display:inline;fill:#18b4f1;stroke-width:0;stroke-dasharray:none"
             id="rect8-6-0"
             width="23.709387"
             height="19.561348"
             x="102.97323"
             y="71.898605"
             ry="9.780674"
             rx="11.854693"
             transform="matrix(1.4213084,0,0,1.6793195,-147.38059,-120.93418)" /><path
             id="machine--learning--03_1_"
             d="m 26.319437,16.038474 v -3.022675 c 0.492111,-0.141813 0.855845,-0.607389 0.855845,-1.163939 0,-0.668931 -0.522066,-1.212995 -1.163949,-1.212995 -0.163467,0 -0.318375,0.03568 -0.459589,0.099 L 23.527671,8.1013884 c 0.139502,-0.1997873 0.224231,-0.44417 0.224231,-0.7099585 0,-0.6689307 -0.522065,-1.2129944 -1.163949,-1.2129944 -0.343194,0 -0.64873,0.1578677 -0.861836,0.4049261 L 18.594581,4.9511703 c 0.01455,-0.075812 0.02225,-0.1543 0.02225,-0.2354636 2e-6,-0.6689307 -0.522064,-1.2129944 -1.163947,-1.2129944 -0.534903,0 -0.981655,0.3790607 -1.117734,0.8919076 H 12.578847 C 12.442767,3.881773 11.996016,3.5027123 11.461969,3.5027123 c -0.641884,0 -1.163949,0.5440637 -1.163949,1.2129944 0,0.081164 0.0086,0.1596515 0.02311,0.2354636 L 8.0445801,6.1374075 C 7.8314747,5.891241 7.5259381,5.7324814 7.1827443,5.7324814 c -0.6418837,0 -1.1639491,0.5440637 -1.1639491,1.2129944 0,0.2434908 0.070179,0.4691434 0.1891418,0.6591198 L 4.2711599,9.8753924 C 4.116252,9.7951207 3.9442272,9.7460658 3.7593647,9.7460658 c -0.6418837,0 -1.1639491,0.5440642 -1.1639491,1.2129942 0,0.557443 0.3637341,1.022126 0.8558449,1.163939 v 3.022675 c -0.4921108,0.141814 -0.8558449,0.60739 -0.8558449,1.16394 0,0.668931 0.5220654,1.212994 1.1639491,1.212994 0.4672913,0 0.8678267,-0.28987 1.0535451,-0.705499 l 2.9304129,0.50928 c 0.060765,0.610956 0.5503083,1.089019 1.1511114,1.089019 0.077882,0 0.1531963,-0.0089 0.2259431,-0.02408 l 0.7103512,1.479675 c -0.2362132,0.222977 -0.3885535,0.541388 -0.3885535,0.899043 0,0.668931 0.5220653,1.212994 1.1639491,1.212994 0.402247,0 0.757423,-0.214057 0.967105,-0.538712 l 3.010862,1.046208 c -0.0017,0.02141 -0.0068,0.04192 -0.0068,0.06333 0,0.557443 0.363734,1.023018 0.855845,1.164832 v 3.021783 c -0.492111,0.141813 -0.855845,0.607389 -0.855845,1.164831 0,0.668931 0.522065,1.212995 1.163949,1.212995 0.641883,0 1.163949,-0.544064 1.163949,-1.212995 0,-0.55655 -0.363734,-1.023018 -0.855845,-1.164831 v -3.022675 c 0.492111,-0.141814 0.855845,-0.607389 0.855845,-1.164832 0,-0.403142 -0.191709,-0.758121 -0.482697,-0.979314 l 0.583687,-1.623272 2.707037,0.806284 c 0,0.0045 -8.56e-4,0.0089 -8.56e-4,0.01338 0,0.55655 0.363734,1.023018 0.855845,1.164831 v 4.806491 c -0.492111,0.141813 -0.855845,0.607389 -0.855845,1.164831 0,0.668931 0.522066,1.212994 1.163949,1.212994 0.641884,0 1.163949,-0.544063 1.163949,-1.212994 0,-0.55655 -0.363734,-1.023018 -0.855845,-1.164831 v -4.806491 c 0.492111,-0.141813 0.855845,-0.607389 0.855845,-1.164831 0,-0.132894 -0.02567,-0.258653 -0.06333,-0.378169 l 3.276174,-2.27704 c 0.204547,0.185517 0.467291,0.300573 0.758279,0.300573 0.641883,0 1.163949,-0.544064 1.163949,-1.212995 0,-0.55655 -0.363734,-1.022126 -0.855845,-1.163939 z m -6.851895,-0.680526 c -0.0017,-0.04013 -0.006,-0.08027 -0.01198,-0.119515 l 2.609471,-1.208535 2.835414,2.58564 z m -1.158814,0.631471 c -0.302113,0 -0.54774,-0.255977 -0.54774,-0.570821 0,-0.314843 0.245627,-0.570821 0.54774,-0.570821 0.302114,0 0.547741,0.255978 0.547741,0.570821 0,0.314844 -0.245627,0.570821 -0.547741,0.570821 z m 0,-1.783815 c -0.641883,0 -1.163949,0.544063 -1.163949,1.212994 0,0.403142 0.19171,0.758122 0.482697,0.978423 l -0.997915,2.773833 -1.627817,-0.484306 -1.253813,-4.571919 4.675481,-3.350005 0.53747,0.436143 2.591499,2.363555 -2.349295,1.088127 c -0.213105,-0.270248 -0.532335,-0.446845 -0.894358,-0.446845 z m -9.3021782,1.79541 -0.8635475,-5.17574 3.0913117,-0.321979 v -0.0036 c 0.167746,0.454873 0.587966,0.78042 1.0835,0.78042 0.0043,0 0.0077,-8.92e-4 0.01198,-8.92e-4 l 0.70436,2.567802 -3.394281,2.43134 C 9.4644268,16.124989 9.2470422,16.025987 9.0065498,16.001014 Z m 3.3112642,-5.36304 c -0.302113,0 -0.547741,-0.255978 -0.547741,-0.570821 0,-0.3148438 0.245628,-0.5708213 0.547741,-0.5708213 0.302113,0 0.547741,0.2559775 0.547741,0.5708213 0,0.314843 -0.245628,0.570821 -0.547741,0.570821 z m -2.3278984,6.169324 3.2222564,-2.309149 1.091202,3.980584 -4.246702,-1.264725 c 0,-0.0045 8.55e-4,-0.008 8.55e-4,-0.01249 8.56e-4,-0.138242 -0.02653,-0.269353 -0.067611,-0.39422 z M 21.842512,8.315446 c 0.202835,0.1774896 0.460445,0.288978 0.745441,0.288978 0.163466,0 0.318374,-0.035676 0.459589,-0.099002 l 2.024073,2.635587 c -0.139503,0.199787 -0.224231,0.44417 -0.224231,0.709959 0,0.06154 0.0086,0.120407 0.01712,0.179273 l -2.69078,1.245995 -2.820009,-2.571369 -0.397112,-0.321979 z m 3.527793,7.875544 -2.685642,-2.448286 2.431456,-1.125588 c 0.150629,0.189977 0.352608,0.330898 0.587109,0.397791 v 3.022675 c -0.118962,0.03478 -0.231933,0.08473 -0.332923,0.153408 z m 1.188768,-4.340022 c 0,0.314843 -0.245627,0.57082 -0.54774,0.57082 -0.302114,0 -0.547741,-0.255977 -0.547741,-0.57082 0,-0.314843 0.245627,-0.570821 0.547741,-0.570821 0.302113,0 0.54774,0.255978 0.54774,0.570821 z m -3.97112,-5.0303593 c 0.302113,0 0.547741,0.2559775 0.547741,0.5708209 0,0.3148434 -0.245628,0.5708209 -0.547741,0.5708209 -0.302113,0 -0.547741,-0.2559775 -0.547741,-0.5708209 0,-0.3148434 0.245628,-0.5708209 0.547741,-0.5708209 z M 17.452884,4.1448858 c 0.302113,0 0.54774,0.2559775 0.54774,0.5708209 0,0.3148434 -0.245627,0.5708209 -0.54774,0.5708209 -0.302114,0 -0.547741,-0.2559775 -0.547741,-0.5708209 0,-0.3148434 0.245627,-0.5708209 0.547741,-0.5708209 z m 0,1.7838153 c 0.343193,0 0.64873,-0.1578677 0.861835,-0.4049261 l 3.131537,1.632191 c -0.01455,0.075812 -0.02225,0.1543 -0.02225,0.2354636 0,0.1391376 0.02739,0.2702481 0.06847,0.3951151 l -3.046808,2.1833899 -5.908754,-4.789544 c 0.01797,-0.045487 0.02996,-0.094542 0.04279,-0.1435971 h 3.756303 c 0.135223,0.5128468 0.581975,0.8919076 1.116878,0.8919076 z M 11.461969,4.1448858 c 0.302113,0 0.547741,0.2559775 0.547741,0.5708209 0,0.3148434 -0.245628,0.5708209 -0.547741,0.5708209 -0.302113,0 -0.547741,-0.2559775 -0.547741,-0.5708209 0,-0.3148434 0.245628,-0.5708209 0.547741,-0.5708209 z M 10.600133,5.523775 c 0.213105,0.2461665 0.518642,0.4049261 0.861836,0.4049261 0.260177,0 0.498958,-0.092758 0.693235,-0.2443827 l 5.758124,4.6664606 -4.343413,3.111866 -0.647874,-2.363555 c 0.333779,-0.213166 0.559722,-0.594011 0.559722,-1.031937 0,-0.6689312 -0.522065,-1.2129948 -1.163949,-1.2129948 -0.575983,0 -1.051833,0.4388185 -1.144264,1.0123152 v -0.00268 L 8.0368775,10.190236 7.6774227,8.0389546 C 8.0719672,7.8445187 8.3466934,7.4288898 8.3466934,6.9454758 c 0,-0.081164 -0.00856,-0.1596515 -0.023108,-0.2354636 z M 4.8420085,10.522917 C 4.8129098,10.44443 4.7778201,10.369509 4.734172,10.299941 L 6.670949,8.0291436 C 6.7933349,8.092469 6.9277025,8.131713 7.0706286,8.1468754 L 7.4223809,10.254453 Z M 7.1827443,6.3746549 c 0.3021133,0 0.5477407,0.2559775 0.5477407,0.5708209 0,0.3148434 -0.2456274,0.5708209 -0.5477407,0.5708209 -0.3021133,0 -0.5477407,-0.2559775 -0.5477407,-0.5708209 0,-0.3148434 0.2456274,-0.5708209 0.5477407,-0.5708209 z M 3.2116239,10.95906 c 0,-0.314843 0.2456275,-0.570821 0.5477408,-0.570821 0.3021132,0 0.5477407,0.255978 0.5477407,0.570821 0,0.314844 -0.2456275,0.570821 -0.5477407,0.570821 -0.3021133,0 -0.5477408,-0.255977 -0.5477408,-0.570821 z m 0.5477408,5.922267 c -0.3021133,0 -0.5477408,-0.255978 -0.5477408,-0.570821 0,-0.314844 0.2456275,-0.570821 0.5477408,-0.570821 0.3021132,0 0.5477407,0.255977 0.5477407,0.570821 0,0.314843 -0.2456275,0.570821 -0.5477407,0.570821 z M 7.840889,16.694026 4.9104761,16.184747 C 4.8599812,15.684387 4.5210666,15.276785 4.066613,15.145674 v -3.022675 c 0.43049,-0.123975 0.7599903,-0.4959 0.8361605,-0.960584 L 7.5276498,10.8886 8.3988999,16.108935 C 8.1541283,16.230234 7.9564281,16.437157 7.840889,16.694026 Z m 0.5058044,0.508387 c 0,-0.314843 0.2456275,-0.57082 0.5477407,-0.57082 0.3021133,0 0.5477408,0.255977 0.5477408,0.57082 0,0.314844 -0.2456275,0.570821 -0.5477408,0.570821 -0.3021132,0 -0.5477407,-0.255977 -0.5477407,-0.570821 z m 2.2594306,4.138452 c -0.302113,0 -0.547741,-0.255978 -0.547741,-0.570821 0,-0.314843 0.245628,-0.570821 0.547741,-0.570821 0.302113,0 0.547741,0.255978 0.547741,0.570821 0,0.314843 -0.245628,0.570821 -0.547741,0.570821 z m 1.157958,-0.507496 c 8.56e-4,-0.0214 0.006,-0.04192 0.006,-0.06332 0,-0.668931 -0.522065,-1.212994 -1.163949,-1.212994 -0.07788,0 -0.153196,0.0089 -0.225943,0.02408 L 9.6698296,18.101456 c 0.083873,-0.07849 0.1557638,-0.16857 0.2148171,-0.269356 l 4.6181393,1.37443 0.635037,2.315392 c -0.143782,0.09187 -0.269591,0.212274 -0.363734,0.358547 z m 4.524853,7.071936 c 0,0.314844 -0.245628,0.570821 -0.547741,0.570821 -0.302113,0 -0.547741,-0.255977 -0.547741,-0.570821 0,-0.314843 0.245628,-0.570821 0.547741,-0.570821 0.302113,0 0.547741,0.255978 0.547741,0.570821 z M 15.741194,23.12468 c -0.302113,0 -0.547741,-0.255977 -0.547741,-0.570821 0,-0.314843 0.245628,-0.570821 0.547741,-0.570821 0.302113,0 0.547741,0.255978 0.547741,0.570821 0,0.314844 -0.245628,0.570821 -0.547741,0.570821 z m 0.103557,-1.773112 c -0.03509,-0.0036 -0.06847,-0.0107 -0.103557,-0.0107 -0.0043,0 -0.0077,8.92e-4 -0.01198,8.92e-4 l -0.528912,-1.928305 1.211876,0.360331 z m 1.378766,-2.003225 0.981654,-2.728345 c 0.03509,0.0036 0.06847,0.0107 0.103557,0.0107 0.444184,0 0.827603,-0.264005 1.023591,-0.646633 l 5.521055,1.278103 c 0.0051,0.110597 0.02568,0.216734 0.0582,0.317519 L 21.6354,19.856728 c -0.205403,-0.184625 -0.468148,-0.299681 -0.759135,-0.299681 -0.42022,0 -0.785665,0.235463 -0.991068,0.584199 z m 4.200487,8.556962 c 0,0.314844 -0.245628,0.570821 -0.547741,0.570821 -0.302113,0 -0.547741,-0.255977 -0.547741,-0.570821 0,-0.314843 0.245628,-0.570821 0.547741,-0.570821 0.302113,0 0.547741,0.255978 0.547741,0.570821 z m -0.547741,-6.56444 c -0.302113,0 -0.547741,-0.255978 -0.547741,-0.570821 0,-0.314843 0.245628,-0.570821 0.547741,-0.570821 0.302113,0 0.547741,0.255978 0.547741,0.570821 0,0.314843 -0.245628,0.570821 -0.547741,0.570821 z m 5.13507,-3.567631 c -0.302114,0 -0.547741,-0.255977 -0.547741,-0.570821 0,-0.314843 0.245627,-0.57082 0.547741,-0.57082 0.302113,0 0.54774,0.255977 0.54774,0.57082 0,0.314844 -0.245627,0.570821 -0.54774,0.570821 z"
             style="stroke-width:0.86399;stroke-dasharray:none" /><rect
             id="_Transparent_Rectangle"
             style="fill:none;stroke-width:0.988898;stroke-dasharray:none"
             width="32"
             height="32"
             x="0"
             y="0" /></g></g></g><rect
       style="font-variation-settings:'wght' 350;fill:#dedede;stroke:#000000;stroke-width:0;stroke-linecap:round;stroke-linejoin:round;stroke-miterlimit:3.5;stroke-dasharray:none"
       id="rect2"
       width="18.280052"
       height="15.921334"
       x="10.572512"
       y="46.546165"
       rx="2.1432183"
       ry="2.7552638" /><g
       style="fill:#000000"
       id="g3"
       transform="matrix(0.21148034,0,0,0.2189123,16.311202,48.440776)"><path
         id="sales--connect_1_"
         d="M 26.000553,34.682865 H 6.6511974 V 33.6982 H 15.82832 V 27.844913 H -1.6413839 c -1.7981081,0 -3.2617487,-1.448279 -3.2617487,-3.227514 V 1.3683589 c 0,-1.77923534 1.4636406,-3.2275137 3.2617487,-3.2275137 H 27.176718 c 0.431214,-0.8123488 1.290878,-1.3675906 2.279078,-1.3675906 1.416649,0 2.5707,1.1405705 2.5707,2.54371844 0,1.40314791 -1.154051,2.54371846 -2.5707,2.54371846 -0.529344,0 -1.02137,-0.1586405 -1.430471,-0.430791 l -8.873062,8.7799315 c 0.275038,0.404807 0.435361,0.891669 0.435361,1.415456 0,1.40178 -1.154051,2.543719 -2.5707,2.543719 -1.416649,0 -2.5707,-1.140571 -2.5707,-2.543719 0,-0.523787 0.160323,-1.010649 0.43536,-1.415456 L 12.919007,8.2678532 c -0.818202,0.5443011 -2.044122,0.5443011 -2.860941,0 L 5.3312949,12.945013 c 0.2750373,0.404807 0.4353605,0.891669 0.4353605,1.415456 0,1.401781 -1.1526688,2.543719 -2.5707002,2.543719 -1.4180314,0 -2.57070021,-1.141938 -2.57070021,-2.543719 0,-1.40178 1.15266881,-2.543718 2.57070021,-2.543718 0.5293431,0 1.0213696,0.15864 1.4304703,0.430791 L 9.3531968,7.5703821 C 9.0781595,7.1655753 8.9178363,6.678713 8.9178363,6.1549258 c 0,-1.4017803 1.1526687,-2.5437184 2.5707007,-2.5437184 1.418031,0 2.5707,1.1405705 2.5707,2.5437184 0,0.5237872 -0.160324,1.0106495 -0.435361,1.4154563 l 1.962578,1.9419786 c 0.818201,-0.5443011 2.044121,-0.5443011 2.86094,0 l 8.873062,-8.77993143 c -0.275037,-0.40480681 -0.435361,-0.89166905 -0.435361,-1.41545623 0,-0.0642768 0.0028,-0.12855351 0.0083,-0.19146268 H -1.6413839 c -1.2494156,0 -2.2666389,1.00654665 -2.2666389,2.24284854 V 20.022295 H 36.559774 V -1.3668222 h 0.996491 V 24.617399 c 0,1.780603 -1.46364,3.227514 -3.261748,3.227514 H 16.82343 v 5.85192 h 9.177123 z M -3.9080228,21.00696 v 3.610439 c 0,1.236302 1.0172233,2.242848 2.2666389,2.242848 H 34.293135 c 1.249415,0 2.266639,-1.005179 2.266639,-2.242848 V 21.00696 Z m 7.103978,-8.205544 c -0.8679568,0 -1.5755905,0.700206 -1.5755905,1.559053 0,0.858848 0.7076337,1.559054 1.5755905,1.559054 0.8679568,0 1.5755904,-0.700206 1.5755904,-1.559054 0,-0.858847 -0.7076336,-1.559053 -1.5755904,-1.559053 z M 17.016924,10.066235 c -0.867957,0 -1.57559,0.700206 -1.57559,1.559053 0,0.858847 0.707633,1.559053 1.57559,1.559053 0.869338,0 1.57559,-0.700206 1.57559,-1.559053 0,-0.858847 -0.706252,-1.559053 -1.57559,-1.559053 z M 11.488537,4.5958726 c -0.867957,0 -1.5755909,0.7002064 -1.5755909,1.5590532 0,0.8588469 0.7076339,1.5590533 1.5755909,1.5590533 0.867956,0 1.57559,-0.7002064 1.57559,-1.5590533 0,-0.8588468 -0.707634,-1.5590532 -1.57559,-1.5590532 z m 17.967259,-6.8379528 c -0.869339,0 -1.575591,0.7002064 -1.575591,1.55905324 0,0.85884687 0.706252,1.55905324 1.575591,1.55905324 0.869338,0 1.57559,-0.70020637 1.57559,-1.55905324 0,-0.85884684 -0.706252,-1.55905324 -1.57559,-1.55905324 z"
         style="stroke-width:1.37482" /><rect
         id="_Transparent_Rectangle-5"
         style="fill:none"
         width="32"
         height="32"
         x="0"
         y="0" /></g><rect
       style="font-variation-settings:'wght' 350;fill:#dedede;stroke:#000000;stroke-width:0;stroke-linecap:round;stroke-linejoin:round;stroke-miterlimit:3.5;stroke-dasharray:none"
       id="rect2-9"
       width="18.280052"
       height="15.921334"
       x="28.878073"
       y="66.975945"
       rx="2.1432183"
       ry="2.7552638" /><rect
       style="font-variation-settings:'wght' 350;fill:#dedede;stroke:#000000;stroke-width:0;stroke-linecap:round;stroke-linejoin:round;stroke-miterlimit:3.5;stroke-dasharray:none"
       id="rect2-9-2"
       width="18.280052"
       height="15.921334"
       x="58.179394"
       y="65.494881"
       rx="2.1432183"
       ry="2.7552638" /><g
       style="fill:#000000"
       id="g3-5-9"
       transform="matrix(0.21105711,0,0,0.23389677,63.801414,67.892598)"><path
         id="sales--connect_1_-6-7"
         d="M 26.000553,34.682865 H 6.6511974 V 33.6982 H 15.82832 V 27.844913 H -1.6413839 c -1.7981081,0 -3.2617487,-1.448279 -3.2617487,-3.227514 V 1.3683589 c 0,-1.77923534 1.4636406,-3.2275137 3.2617487,-3.2275137 H 27.176718 c 0.431214,-0.8123488 1.290878,-1.3675906 2.279078,-1.3675906 1.416649,0 2.5707,1.1405705 2.5707,2.54371844 0,1.40314791 -1.154051,2.54371846 -2.5707,2.54371846 -0.529344,0 -1.02137,-0.1586405 -1.430471,-0.430791 l -8.873062,8.7799315 c 0.275038,0.404807 0.435361,0.891669 0.435361,1.415456 0,1.40178 -1.154051,2.543719 -2.5707,2.543719 -1.416649,0 -2.5707,-1.140571 -2.5707,-2.543719 0,-0.523787 0.160323,-1.010649 0.43536,-1.415456 L 12.919007,8.2678532 c -0.818202,0.5443011 -2.044122,0.5443011 -2.860941,0 L 5.3312949,12.945013 c 0.2750373,0.404807 0.4353605,0.891669 0.4353605,1.415456 0,1.401781 -1.1526688,2.543719 -2.5707002,2.543719 -1.4180314,0 -2.57070021,-1.141938 -2.57070021,-2.543719 0,-1.40178 1.15266881,-2.543718 2.57070021,-2.543718 0.5293431,0 1.0213696,0.15864 1.4304703,0.430791 L 9.3531968,7.5703821 C 9.0781595,7.1655753 8.9178363,6.678713 8.9178363,6.1549258 c 0,-1.4017803 1.1526687,-2.5437184 2.5707007,-2.5437184 1.418031,0 2.5707,1.1405705 2.5707,2.5437184 0,0.5237872 -0.160324,1.0106495 -0.435361,1.4154563 l 1.962578,1.9419786 c 0.818201,-0.5443011 2.044121,-0.5443011 2.86094,0 l 8.873062,-8.77993143 c -0.275037,-0.40480681 -0.435361,-0.89166905 -0.435361,-1.41545623 0,-0.0642768 0.0028,-0.12855351 0.0083,-0.19146268 H -1.6413839 c -1.2494156,0 -2.2666389,1.00654665 -2.2666389,2.24284854 V 20.022295 H 36.559774 V -1.3668222 h 0.996491 V 24.617399 c 0,1.780603 -1.46364,3.227514 -3.261748,3.227514 H 16.82343 v 5.85192 h 9.177123 z M -3.9080228,21.00696 v 3.610439 c 0,1.236302 1.0172233,2.242848 2.2666389,2.242848 H 34.293135 c 1.249415,0 2.266639,-1.005179 2.266639,-2.242848 V 21.00696 Z m 7.103978,-8.205544 c -0.8679568,0 -1.5755905,0.700206 -1.5755905,1.559053 0,0.858848 0.7076337,1.559054 1.5755905,1.559054 0.8679568,0 1.5755904,-0.700206 1.5755904,-1.559054 0,-0.858847 -0.7076336,-1.559053 -1.5755904,-1.559053 z M 17.016924,10.066235 c -0.867957,0 -1.57559,0.700206 -1.57559,1.559053 0,0.858847 0.707633,1.559053 1.57559,1.559053 0.869338,0 1.57559,-0.700206 1.57559,-1.559053 0,-0.858847 -0.706252,-1.559053 -1.57559,-1.559053 z M 11.488537,4.5958726 c -0.867957,0 -1.5755909,0.7002064 -1.5755909,1.5590532 0,0.8588469 0.7076339,1.5590533 1.5755909,1.5590533 0.867956,0 1.57559,-0.7002064 1.57559,-1.5590533 0,-0.8588468 -0.707634,-1.5590532 -1.57559,-1.5590532 z m 17.967259,-6.8379528 c -0.869339,0 -1.575591,0.7002064 -1.575591,1.55905324 0,0.85884687 0.706252,1.55905324 1.575591,1.55905324 0.869338,0 1.57559,-0.70020637 1.57559,-1.55905324 0,-0.85884684 -0.706252,-1.55905324 -1.57559,-1.55905324 z"
         style="stroke-width:1.37482" /><rect
         id="_Transparent_Rectangle-5-2-5"
         style="fill:none"
         width="32"
         height="32"
         x="0"
         y="0" /></g><rect
       style="font-variation-settings:'wght' 350;fill:#dedede;stroke:#000000;stroke-width:0;stroke-linecap:round;stroke-linejoin:round;stroke-miterlimit:3.5;stroke-dasharray:none"
       id="rect2-3"
       width="18.280052"
       height="15.921334"
       x="77.157753"
       y="45.607807"
       rx="2.1432183"
       ry="2.7552638" /><g
       style="fill:#000000"
       id="g4"
       transform="matrix(0.30687635,0,0,0.29118651,81.17132,47.027813)"><path
         id="mobile--phone_1_"
         d="M 25,31.36 H 7 C 6.801,31.36 6.64,31.199 6.64,31 V 1 C 6.64,0.801 6.801,0.64 7,0.64 h 18 c 0.199,0 0.36,0.161 0.36,0.36 v 30 c 0,0.199 -0.161,0.36 -0.36,0.36 z M 7.36,30.64 H 24.64 V 24.36 H 7.36 Z m 0,-7 H 24.64 V 1.36 H 7.36 Z M 17,27.5 c 0,-0.552 -0.448,-1 -1,-1 -0.552,0 -1,0.448 -1,1 0,0.552 0.448,1 1,1 0.552,0 1,-0.448 1,-1 z" /><rect
         id="_Transparent_Rectangle-0"
         style="fill:none"
         width="32"
         height="32"
         x="0"
         y="0" /></g><g
       style="fill:#000000"
       id="g5"
       transform="matrix(0.30831795,0,0,0.31383967,32.940983,68.112374)"><path
         id="server--rack_1_"
         d="M 27,31.36 H 5 C 4.801,31.36 4.64,31.199 4.64,31 V 1 C 4.64,0.801 4.801,0.64 5,0.64 h 22 c 0.199,0 0.36,0.161 0.36,0.36 v 30 c 0,0.199 -0.161,0.36 -0.36,0.36 z M 5.36,30.64 H 26.64 V 26.36 H 5.36 Z m 0,-5 H 26.64 V 21.36 H 5.36 Z m 0,-5 H 26.64 V 16.36 H 5.36 Z m 0,-5 H 26.64 V 11.36 H 5.36 Z m 0,-5 H 26.64 V 6.36 H 5.36 Z m 0,-5 H 26.64 V 1.36 H 5.36 Z M 25,28.36 h -6 v -0.72 h 6 z m -13,0 h -1 v -0.72 h 1 z m -2,0 H 9 v -0.72 h 1 z m -2,0 H 7 v -0.72 h 1 z m 17,-5 h -6 v -0.72 h 6 z m -13,0 h -1 v -0.72 h 1 z m -2,0 H 9 v -0.72 h 1 z m -2,0 H 7 v -0.72 h 1 z m 17,-5 h -6 v -0.72 h 6 z m -13,0 h -1 v -0.72 h 1 z m -2,0 H 9 v -0.72 h 1 z m -2,0 H 7 v -0.72 h 1 z m 17,-5 h -6 v -0.72 h 6 z m -13,0 h -1 v -0.72 h 1 z m -2,0 H 9 v -0.72 h 1 z m -2,0 H 7 v -0.72 h 1 z m 17,-5 H 19 V 7.64 h 6 z m -13,0 H 11 V 7.64 h 1 z m -2,0 H 9 V 7.64 h 1 z m -2,0 H 7 V 7.64 h 1 z m 17,-5 H 19 V 2.64 h 6 z m -13,0 H 11 V 2.64 h 1 z m -2,0 H 9 V 2.64 h 1 z m -2,0 H 7 V 2.64 h 1 z" /><rect
         id="_Transparent_Rectangle-2"
         style="fill:none"
         width="32"
         height="32"
         x="0"
         y="0" /></g><path
       style="font-variation-settings:'wght' 350;fill:#7bb725;stroke:#dedede;stroke-width:0.4;stroke-linecap:round;stroke-linejoin:round;stroke-miterlimit:3.5;stroke-dasharray:none;stroke-opacity:1"
       d="M 32.183136,43.203042 45.206663,33.435398"
       id="path5" /><path
       style="font-variation-settings:'wght' 350;fill:#7bb725;stroke:#dedede;stroke-width:0.4;stroke-linecap:round;stroke-linejoin:round;stroke-miterlimit:3.5;stroke-dasharray:none;stroke-opacity:1"
       d="M 49.022971,40.704699 43.262566,64.247226"
       id="path6" /><path
       style="font-variation-settings:'wght' 350;fill:#7bb725;stroke:#dedede;stroke-width:0.4;stroke-linecap:round;stroke-linejoin:round;stroke-miterlimit:3.5;stroke-dasharray:none;stroke-opacity:1"
       d="m 58.894293,39.866091 9.016288,23.292075"
       id="path7" /><path
       style="font-variation-settings:'wght' 350;fill:#7bb725;stroke:#dedede;stroke-width:0.4;stroke-linecap:round;stroke-linejoin:round;stroke-miterlimit:3.5;stroke-dasharray:none;stroke-opacity:1"
       d="M 63.924891,30.658872 81.707013,42.054458"
       id="path8" /></g><g
     inkscape:groupmode="layer"
     id="layer3"
     inkscape:label="Layer 2"
     style="display:none"><g
       id="g14"><rect
         style="font-variation-settings:'wght' 366;display:inline;fill:#dedede;fill-opacity:1;stroke:#dedede;stroke-width:0;stroke-linecap:round;stroke-linejoin:round;stroke-miterlimit:3.5;stroke-dasharray:none;stroke-opacity:1"
         id="rect13"
         width="54.929924"
         height="9.1026735"
         x="25.5019"
         y="96.387222"
         rx="2.1432183"
         ry="2.7552638" /><text
         xml:space="preserve"
         style="font-style:normal;font-variant:normal;font-weight:normal;font-stretch:normal;font-size:4.93889px;line-height:0;font-family:Roboto;-inkscape-font-specification:'Roboto, @wght=350';font-variant-ligatures:normal;font-variant-caps:normal;font-variant-numeric:normal;font-variant-east-asian:normal;font-variation-settings:'wght' 350;text-align:start;writing-mode:lr-tb;direction:ltr;text-anchor:start;display:inline;fill:#000000;fill-opacity:1;stroke-width:0"
         x="32.393784"
         y="102.28857"
         id="text1"><tspan
           sodipodi:role="line"
           id="tspan8"
           x="32.393784"
           y="102.28857">Federated Learning</tspan></text></g></g><g
     inkscape:groupmode="layer"
     id="layer2"
     inkscape:label="Style(delete later )"
     style="display:inline"><text
       xml:space="preserve"
       style="font-style:normal;font-variant:normal;font-weight:normal;font-stretch:normal;font-size:24.8542px;line-height:0;font-family:Sans;-inkscape-font-specification:'Sans, Normal';font-variant-ligatures:normal;font-variant-caps:normal;font-variant-numeric:normal;font-variant-east-asian:normal;text-align:start;writing-mode:lr-tb;direction:ltr;text-anchor:start;fill:#04316a;stroke-width:0"
       x="85.407967"
       y="43.509289"
       id="text12"
       transform="scale(0.73189752,1.3663115)"><tspan
         sodipodi:role="line"
         x="85.407967"
         y="43.509289"
         style="font-style:normal;font-variant:normal;font-weight:normal;font-stretch:normal;font-size:8.98938px;font-family:Roboto;-inkscape-font-specification:'Roboto, Normal';font-variant-ligatures:normal;font-variant-caps:normal;font-variant-numeric:normal;font-variant-east-asian:normal;stroke-width:0"
         id="tspan19" /><tspan
         sodipodi:role="line"
         id="tspan18"
         x="85.407967"
         y="48.403309"
         style="font-style:normal;font-variant:normal;font-weight:normal;font-stretch:normal;font-size:8.98938px;font-family:Roboto;-inkscape-font-specification:'Roboto, Normal';font-variant-ligatures:normal;font-variant-caps:normal;font-variant-numeric:normal;font-variant-east-asian:normal;stroke-width:0" /></text><g
       id="g9127"
       transform="matrix(0.352778,0,0,0.352778,79.718,66.6954)"
       ns5:version="1.12.0"
       ns5:texconverter="pdflatex"
       ns5:pdfconverter="inkscape"
       ns5:text="$E = mc^2$"
       ns5:preamble="/Users/svj/Library/Application Support/org.inkscape.Inkscape/config/inkscape/extensions/textext/default_packages.tex"
       ns5:scale="1.0"
       ns5:alignment="middle center"
       ns5:inkscapeversion="1.4.2"
       ns5:jacobian_sqrt="0.352778"><defs
         id="defs1220"><g
           id="g7437"><g
             id="g1571"><path
               d="M 7.0625,-2.328125 C 7.078125,-2.375 7.109375,-2.4375 7.109375,-2.46875 c 0,0 0,-0.109375 -0.125,-0.109375 -0.09375,0 -0.109375,0.0625 -0.125,0.125 C 6.203125,-0.984375 5.84375,-0.3125 4.140625,-0.3125 H 2.6875 c -0.140625,0 -0.171875,0 -0.21875,0 -0.109375,-0.015625 -0.140625,-0.03125 -0.140625,-0.109375 0,-0.03125 0,-0.046875 0.046875,-0.21875 L 3.0625,-3.375 h 0.984375 c 0.84375,0 0.84375,0.21875 0.84375,0.46875 0,0.0625 0,0.1875 -0.0625,0.484375 C 4.8125,-2.375 4.796875,-2.34375 4.796875,-2.3125 c 0,0.046875 0.03125,0.109375 0.125,0.109375 C 5,-2.203125 5.03125,-2.25 5.078125,-2.40625 l 0.5625,-2.328125 c 0,-0.0625 -0.046875,-0.109375 -0.125,-0.109375 -0.078125,0 -0.109375,0.0625 -0.125,0.171875 -0.21875,0.765625 -0.390625,1 -1.3125,1 h -0.9375 l 0.59375,-2.40625 C 3.828125,-6.4375 3.84375,-6.46875 4.28125,-6.46875 H 5.6875 c 1.203125,0 1.515625,0.28125 1.515625,1.109375 0,0.234375 0,0.25 -0.046875,0.53125 0,0.046875 -0.015625,0.125 -0.015625,0.171875 0,0.046875 0.03125,0.125 0.125,0.125 0.109375,0 0.125,-0.0625 0.140625,-0.25 L 7.609375,-6.515625 C 7.640625,-6.78125 7.59375,-6.78125 7.34375,-6.78125 H 2.296875 c -0.1875,0 -0.296875,0 -0.296875,0.203125 0,0.109375 0.09375,0.109375 0.28125,0.109375 0.375,0 0.65625,0 0.65625,0.171875 0,0.046875 0,0.0625 -0.0625,0.25 L 1.5625,-0.78125 c -0.09375,0.390625 -0.109375,0.46875 -0.90625,0.46875 -0.171875,0 -0.28125,0 -0.28125,0.1875 C 0.375,0 0.46875,0 0.65625,0 h 5.171875 c 0.234375,0 0.25,-0.015625 0.3125,-0.171875 z m 0,0"
               id="path1691" /></g><g
             id="g4911"><path
               d="m 0.875,-0.59375 c -0.03125,0.15625 -0.09375,0.390625 -0.09375,0.4375 0,0.171875 0.140625,0.265625 0.296875,0.265625 0.125,0 0.296875,-0.078125 0.375,-0.28125 0,-0.015625 0.125,-0.484375 0.1875,-0.734375 l 0.21875,-0.890625 C 1.90625,-2.03125 1.96875,-2.25 2.03125,-2.46875 c 0.03125,-0.171875 0.109375,-0.46875 0.125,-0.5 0.140625,-0.3125 0.671875,-1.21875 1.625,-1.21875 0.453125,0 0.53125,0.375 0.53125,0.703125 0,0.25 -0.0625,0.53125 -0.140625,0.828125 L 3.890625,-1.5 3.6875,-0.75 c -0.03125,0.203125 -0.125,0.546875 -0.125,0.59375 0,0.171875 0.140625,0.265625 0.28125,0.265625 0.3125,0 0.375,-0.25 0.453125,-0.5625 0.140625,-0.5625 0.515625,-2.015625 0.59375,-2.40625 0.03125,-0.125 0.5625,-1.328125 1.65625,-1.328125 0.421875,0 0.53125,0.34375 0.53125,0.703125 0,0.5625 -0.421875,1.703125 -0.625,2.234375 -0.078125,0.234375 -0.125,0.34375 -0.125,0.546875 0,0.46875 0.34375,0.8125 0.8125,0.8125 0.9375,0 1.3125,-1.453125 1.3125,-1.53125 0,-0.109375 -0.09375,-0.109375 -0.125,-0.109375 -0.09375,0 -0.09375,0.03125 -0.140625,0.1875 -0.15625,0.53125 -0.46875,1.234375 -1.015625,1.234375 -0.171875,0 -0.25,-0.09375 -0.25,-0.328125 0,-0.25 0.09375,-0.484375 0.1875,-0.703125 0.1875,-0.53125 0.609375,-1.625 0.609375,-2.203125 0,-0.640625 -0.40625,-1.0625 -1.15625,-1.0625 -0.734375,0 -1.25,0.4375 -1.625,0.96875 0,-0.125 -0.03125,-0.46875 -0.3125,-0.703125 -0.25,-0.21875 -0.5625,-0.265625 -0.8125,-0.265625 -0.90625,0 -1.390625,0.640625 -1.5625,0.875 -0.046875,-0.578125 -0.46875,-0.875 -0.921875,-0.875 -0.453125,0 -0.640625,0.390625 -0.734375,0.5625 -0.171875,0.359375 -0.296875,0.9375 -0.296875,0.96875 0,0.109375 0.09375,0.109375 0.109375,0.109375 0.109375,0 0.109375,-0.015625 0.171875,-0.234375 0.171875,-0.703125 0.375,-1.1875 0.734375,-1.1875 0.15625,0 0.296875,0.078125 0.296875,0.453125 0,0.21875 -0.03125,0.328125 -0.15625,0.84375 z m 0,0"
               id="path3137" /></g><g
             id="g516"><path
               d="m 3.953125,-3.78125 c -0.171875,0 -0.296875,0 -0.4375,0.125 -0.171875,0.15625 -0.1875,0.328125 -0.1875,0.390625 0,0.25 0.1875,0.359375 0.375,0.359375 0.28125,0 0.546875,-0.25 0.546875,-0.640625 0,-0.484375 -0.46875,-0.859375 -1.171875,-0.859375 -1.34375,0 -2.671875,1.421875 -2.671875,2.828125 0,0.90625 0.578125,1.6875 1.625,1.6875 1.421875,0 2.25,-1.0625 2.25,-1.171875 0,-0.0625 -0.046875,-0.140625 -0.109375,-0.140625 -0.0625,0 -0.078125,0.03125 -0.140625,0.109375 -0.78125,0.984375 -1.875,0.984375 -1.984375,0.984375 -0.625,0 -0.90625,-0.484375 -0.90625,-1.09375 0,-0.40625 0.203125,-1.375 0.546875,-1.984375 0.3125,-0.578125 0.859375,-1 1.40625,-1 0.328125,0 0.71875,0.125 0.859375,0.40625 z m 0,0"
               id="path2459" /></g><g
             id="g4420"><path
               d="m 6.84375,-3.265625 c 0.15625,0 0.34375,0 0.34375,-0.1875 C 7.1875,-3.65625 7,-3.65625 6.859375,-3.65625 h -5.96875 c -0.140625,0 -0.328125,0 -0.328125,0.203125 0,0.1875 0.1875,0.1875 0.328125,0.1875 z m 0.015625,1.9375 c 0.140625,0 0.328125,0 0.328125,-0.203125 0,-0.1875 -0.1875,-0.1875 -0.34375,-0.1875 H 0.890625 c -0.140625,0 -0.328125,0 -0.328125,0.1875 0,0.203125 0.1875,0.203125 0.328125,0.203125 z m 0,0"
               id="path9960" /></g><g
             id="g3923"><path
               d="M 3.515625,-1.265625 H 3.28125 c -0.015625,0.15625 -0.09375,0.5625 -0.1875,0.625 C 3.046875,-0.59375 2.515625,-0.59375 2.40625,-0.59375 H 1.125 c 0.734375,-0.640625 0.984375,-0.84375 1.390625,-1.171875 0.515625,-0.40625 1,-0.84375 1,-1.5 0,-0.84375 -0.734375,-1.359375 -1.625,-1.359375 -0.859375,0 -1.453125,0.609375 -1.453125,1.25 0,0.34375 0.296875,0.390625 0.375,0.390625 0.15625,0 0.359375,-0.125 0.359375,-0.375 0,-0.125 -0.046875,-0.375 -0.40625,-0.375 C 0.984375,-4.21875 1.453125,-4.375 1.78125,-4.375 c 0.703125,0 1.0625,0.546875 1.0625,1.109375 0,0.609375 -0.4375,1.078125 -0.65625,1.328125 L 0.515625,-0.265625 C 0.4375,-0.203125 0.4375,-0.1875 0.4375,0 h 2.875 z m 0,0"
               id="path721" /></g></g></defs></g><text
       xml:space="preserve"
       style="font-style:normal;font-variant:normal;font-weight:normal;font-stretch:normal;font-size:4.23333px;line-height:1;font-family:Roboto;-inkscape-font-specification:'Roboto, @wght=366';font-variant-ligatures:normal;font-variant-caps:normal;font-variant-numeric:normal;font-variant-east-asian:normal;font-variation-settings:'wght' 366;text-align:center;writing-mode:lr-tb;direction:ltr;text-anchor:middle;fill:#dedede;fill-opacity:1;stroke:#c6103c;stroke-width:0;stroke-linecap:round;stroke-linejoin:round;stroke-miterlimit:3.5;stroke-dasharray:none;stroke-opacity:0.31764707"
       x="55.045609"
       y="11.174323"
       id="text11"><tspan
         sodipodi:role="line"
         id="tspan11"
         style="font-style:normal;font-variant:normal;font-weight:normal;font-stretch:normal;font-size:4.23333px;font-family:Roboto;-inkscape-font-specification:'Roboto, @wght=366';font-variant-ligatures:normal;font-variant-caps:normal;font-variant-numeric:normal;font-variant-east-asian:normal;font-variation-settings:'wght' 366;stroke-width:0;stroke-dasharray:none;stroke:#c6103c;stroke-opacity:0.31764707;fill:#dedede"
         x="55.045609"
         y="11.174323">Central </tspan><tspan
         sodipodi:role="line"
         style="font-style:normal;font-variant:normal;font-weight:normal;font-stretch:normal;font-size:4.23333px;font-family:Roboto;-inkscape-font-specification:'Roboto, @wght=366';font-variant-ligatures:normal;font-variant-caps:normal;font-variant-numeric:normal;font-variant-east-asian:normal;font-variation-settings:'wght' 366;stroke-width:0;stroke-dasharray:none;stroke:#c6103c;stroke-opacity:0.31764707;fill:#dedede"
         x="55.045609"
         y="15.407657"
         id="tspan12">Aggregator</tspan></text><text
       xml:space="preserve"
       style="font-style:normal;font-variant:normal;font-weight:normal;font-stretch:normal;font-size:3.52778px;line-height:1;font-family:Roboto;-inkscape-font-specification:'Roboto, @wght=366';font-variant-ligatures:normal;font-variant-caps:normal;font-variant-numeric:normal;font-variant-east-asian:normal;font-variation-settings:'wght' 366;text-align:center;writing-mode:lr-tb;direction:ltr;text-anchor:middle;display:inline;fill:#000000;fill-opacity:1;stroke:#000000;stroke-width:0;stroke-linecap:round;stroke-linejoin:round;stroke-miterlimit:3.5;stroke-dasharray:none"
       x="20.359123"
       y="60.911297"
       id="text11-1"><tspan
         sodipodi:role="line"
         style="font-style:normal;font-variant:normal;font-weight:normal;font-stretch:normal;font-size:3.52778px;font-family:Roboto;-inkscape-font-specification:'Roboto, @wght=366';font-variant-ligatures:normal;font-variant-caps:normal;font-variant-numeric:normal;font-variant-east-asian:normal;font-variation-settings:'wght' 366;fill:#000000;fill-opacity:1;stroke-width:0;stroke-dasharray:none"
         x="20.359123"
         y="60.911297"
         id="tspan12-8">Client1</tspan></text><text
       xml:space="preserve"
       style="font-style:normal;font-variant:normal;font-weight:normal;font-stretch:normal;font-size:3.52778px;line-height:1;font-family:Roboto;-inkscape-font-specification:'Roboto, @wght=366';font-variant-ligatures:normal;font-variant-caps:normal;font-variant-numeric:normal;font-variant-east-asian:normal;font-variation-settings:'wght' 366;text-align:center;writing-mode:lr-tb;direction:ltr;text-anchor:middle;display:inline;fill:#000000;fill-opacity:1;stroke:#000000;stroke-width:0;stroke-linecap:round;stroke-linejoin:round;stroke-miterlimit:3.5;stroke-dasharray:none"
       x="86.666115"
       y="59.816544"
       id="text11-1-4"><tspan
         sodipodi:role="line"
         style="font-style:normal;font-variant:normal;font-weight:normal;font-stretch:normal;font-size:3.52778px;font-family:Roboto;-inkscape-font-specification:'Roboto, @wght=366';font-variant-ligatures:normal;font-variant-caps:normal;font-variant-numeric:normal;font-variant-east-asian:normal;font-variation-settings:'wght' 366;fill:#000000;fill-opacity:1;stroke-width:0;stroke-dasharray:none"
         x="86.666115"
         y="59.816544"
         id="tspan12-8-6">Client4</tspan></text><g
       id="layer2-7"
       transform="translate(46.190759,27.817073)"
       style="fill:#dedede"><text
         xml:space="preserve"
         style="font-style:normal;font-variant:normal;font-weight:normal;font-stretch:normal;font-size:3.52778px;line-height:1;font-family:Roboto;-inkscape-font-specification:'Roboto, @wght=366';font-variant-ligatures:normal;font-variant-caps:normal;font-variant-numeric:normal;font-variant-east-asian:normal;font-variation-settings:'wght' 366;text-align:center;writing-mode:lr-tb;direction:ltr;text-anchor:middle;display:inline;fill:#000000;fill-opacity:1;stroke:#000000;stroke-width:0;stroke-linecap:round;stroke-linejoin:round;stroke-miterlimit:3.5;stroke-dasharray:none"
         x="-8.4013186"
         y="53.530804"
         id="text11-1-5"><tspan
           sodipodi:role="line"
           style="font-style:normal;font-variant:normal;font-weight:normal;font-stretch:normal;font-size:3.52778px;font-family:Roboto;-inkscape-font-specification:'Roboto, @wght=366';font-variant-ligatures:normal;font-variant-caps:normal;font-variant-numeric:normal;font-variant-east-asian:normal;font-variation-settings:'wght' 366;fill:#000000;fill-opacity:1;stroke-width:0;stroke-dasharray:none"
           x="-8.4013186"
           y="53.530804"
           id="tspan12-8-3">Client 2</tspan></text><text
         xml:space="preserve"
         style="font-style:normal;font-variant:normal;font-weight:normal;font-stretch:normal;font-size:3.52778px;line-height:1;font-family:Roboto;-inkscape-font-specification:'Roboto, @wght=366';font-variant-ligatures:normal;font-variant-caps:normal;font-variant-numeric:normal;font-variant-east-asian:normal;font-variation-settings:'wght' 366;text-align:center;writing-mode:lr-tb;direction:ltr;text-anchor:middle;display:inline;fill:#000000;fill-opacity:1;stroke:#000000;stroke-width:0;stroke-linecap:round;stroke-linejoin:round;stroke-miterlimit:3.5;stroke-dasharray:none"
         x="21.432163"
         y="52.488846"
         id="text11-1-5-8"><tspan
           sodipodi:role="line"
           style="font-style:normal;font-variant:normal;font-weight:normal;font-stretch:normal;font-size:3.52777778px;font-family:Roboto;-inkscape-font-specification:'Roboto, @wght=366';font-variant-ligatures:normal;font-variant-caps:normal;font-variant-numeric:normal;font-variant-east-asian:normal;font-variation-settings:'wght' 366;fill:#000000;stroke-width:0;stroke-dasharray:none;fill-opacity:1"
           x="21.432163"
           y="52.488846"
           id="tspan12-8-3-6">Client 3</tspan></text></g></g><metadata
     id="metadata7"><rdf:RDF><cc:Work
         rdf:about=""><dc:title>Figure</dc:title><dc:creator><cc:Agent><dc:title>SVJ</dc:title></cc:Agent></dc:creator><cc:license
           rdf:resource="http://creativecommons.org/licenses/by-nc-sa/4.0/" /></cc:Work><cc:License
         rdf:about="http://creativecommons.org/licenses/by-nc-sa/4.0/"><cc:permits
           rdf:resource="http://creativecommons.org/ns#Reproduction" /><cc:permits
           rdf:resource="http://creativecommons.org/ns#Distribution" /><cc:requires
           rdf:resource="http://creativecommons.org/ns#Notice" /><cc:requires
           rdf:resource="http://creativecommons.org/ns#Attribution" /><cc:prohibits
           rdf:resource="http://creativecommons.org/ns#CommercialUse" /><cc:permits
           rdf:resource="http://creativecommons.org/ns#DerivativeWorks" /><cc:requires
           rdf:resource="http://creativecommons.org/ns#ShareAlike" /></cc:License></rdf:RDF></metadata></svg>
