<?xml version="1.0" encoding="UTF-8" standalone="no"?>
<!-- Created with Inkscape (http://www.inkscape.org/) -->

<svg
   width="114mm"
   height="106mm"
   viewBox="0 0 114 106"
   version="1.1"
   id="svg1"
   inkscape:version="1.4.2 (ebf0e940, 2025-05-08)"
   sodipodi:docname="intro.svg"
   xml:space="preserve"
   xmlns:inkscape="http://www.inkscape.org/namespaces/inkscape"
   xmlns:sodipodi="http://sodipodi.sourceforge.net/DTD/sodipodi-0.dtd"
   xmlns="http://www.w3.org/2000/svg"
   xmlns:svg="http://www.w3.org/2000/svg"
   xmlns:rdf="http://www.w3.org/1999/02/22-rdf-syntax-ns#"
   xmlns:cc="http://creativecommons.org/ns#"
   xmlns:dc="http://purl.org/dc/elements/1.1/"
   xmlns:ns5="http://www.iki.fi/pav/software/textext/"><sodipodi:namedview
     id="namedview1"
     pagecolor="#ffffff"
     bordercolor="#999999"
     borderopacity="1"
     inkscape:showpageshadow="2"
     inkscape:pageopacity="0"
     inkscape:pagecheckerboard="0"
     inkscape:deskcolor="#d1d1d1"
     inkscape:document-units="mm"
     showguides="true"
     inkscape:zoom="1.5194519"
     inkscape:cx="266.54348"
     inkscape:cy="237.58567"
     inkscape:window-width="1680"
     inkscape:window-height="997"
     inkscape:window-x="205"
     inkscape:window-y="1114"
     inkscape:window-maximized="0"
     inkscape:current-layer="layer4"
     inkscape:lockguides="true"
     showgrid="true"><sodipodi:guide
       position="0,138"
       orientation="0,1"
       id="guide1"
       inkscape:locked="true"
       inkscape:label=""
       inkscape:color="rgb(0,134,229)" /><sodipodi:guide
       position="200,72.416357"
       orientation="-1,0"
       id="guide2"
       inkscape:locked="true"
       inkscape:label=""
       inkscape:color="rgb(0,134,229)" /><sodipodi:guide
       position="210,10"
       orientation="0,1"
       id="guide3"
       inkscape:locked="true"
       inkscape:label=""
       inkscape:color="rgb(0,134,229)" /><sodipodi:guide
       position="10,163.52203"
       orientation="-1,0"
       id="guide4"
       inkscape:locked="true"
       inkscape:label=""
       inkscape:color="rgb(0,134,229)" /><sodipodi:guide
       position="105,177.0574"
       orientation="-1,0"
       id="guide5"
       inkscape:locked="true"
       inkscape:label=""
       inkscape:color="rgb(0,134,229)" /><sodipodi:guide
       position="-9.685798,74.000001"
       orientation="0,1"
       id="guide6"
       inkscape:locked="true"
       inkscape:label=""
       inkscape:color="rgb(0,134,229)" /><inkscape:grid
       id="grid6"
       units="cm"
       originx="0"
       originy="0"
       spacingx="0.26458333"
       spacingy="0.26458334"
       empcolor="#0099e5"
       empopacity="0.30196078"
       color="#0099e5"
       opacity="0.14902"
       empspacing="0"
       enabled="false"
       visible="true" /></sodipodi:namedview><title
     id="title7">Figure</title><defs
     id="defs1"><rect
       x="40.116871"
       y="12.954406"
       width="161.72113"
       height="13.790174"
       id="rect5" /><rect
       x="35.93803"
       y="6.6861448"
       width="127.45464"
       height="23.401506"
       id="rect4" /><style
       id="style1">.a{fill:#ffffff;}.b{fill:#b3b3b3;}.c{fill:#3d8dcc;}.d{fill:#211715;}.e{fill:#85807f;}</style><style
       id="style1-9">.a{fill:#3f88c9;}.b{fill:#211715;}.c{fill:#ffffff;}.d{fill:#a0a0a0;}</style><style
       id="style1-97">.a{fill:#3f88c9;}.b{fill:#211715;}.c{fill:#ffffff;}.d{fill:#a0a0a0;}</style></defs><path
     id="path54"
     style="fill:#dedede;stroke:#dedede;stroke-width:0;stroke-linecap:round;stroke-linejoin:round;stroke-miterlimit:3.5"
     d="M 75.374529,65.620547 A 21.046066,12.023082 0 0 0 54.328616,77.64341 21.046066,12.023082 0 0 0 75.374529,89.666827 21.046066,12.023082 0 0 0 85.081292,88.31131 c 1.078171,0.192442 2.164276,0.62956 2.954867,1.192589 0.183495,0.130679 0.738849,0.590722 0.855587,0.812422 0.02551,0.04844 -0.04033,0.124633 0,0.162929 0.08555,0.08123 0.257031,0.08114 0.342585,0.162373 0.123221,0.117005 0.150894,0.454145 0.168666,0.48546 l 5.83e-4,5.53e-4 5.84e-4,5.54e-4 v 5.55e-4 h 5.84e-4 5.83e-4 c 0.114069,0 0,-0.216434 0,-0.324748 v -0.974796 c 0,-0.38108 -0.09893,-2.503171 -0.03793,-3.204805 A 21.046066,12.023082 0 0 0 96.420444,77.64341 21.046066,12.023082 0 0 0 75.374529,65.620547 Z" /><ellipse
     style="fill:#dedede;stroke:#dedede;stroke-width:0;stroke-linecap:round;stroke-linejoin:round;stroke-miterlimit:3.5"
     id="path52"
     cx="19.72035"
     cy="61.676479"
     rx="17.726143"
     ry="7.7267799" /><g
     inkscape:groupmode="layer"
     id="layer2"
     inkscape:label="Style(delete later )"
     style="display:inline"><circle
       id="path8"
       style="fill:#dedede;stroke:#000000;stroke-width:0.264583"
       cx="154.60432"
       cy="65.061737"
       r="0" /><g
       id="g23"
       transform="matrix(0.9412646,0,0,0.79874839,-93.725514,-4.8597646)"><rect
         style="display:inline;fill:#fdb735;stroke-width:0"
         id="rect8-6"
         width="30.513823"
         height="12.403204"
         x="146.18947"
         y="61.452568" /><text
         xml:space="preserve"
         style="font-style:normal;font-variant:normal;font-weight:normal;font-stretch:normal;font-size:8.1857px;line-height:0;font-family:Roboto;-inkscape-font-specification:'Roboto, @wght=500,wdth=75';font-variant-ligatures:normal;font-variant-caps:normal;font-variant-numeric:normal;font-variant-east-asian:normal;font-variation-settings:'wdth' 75, 'wght' 500;text-align:start;writing-mode:lr-tb;direction:ltr;text-anchor:start;fill:#04316a;stroke-width:0"
         x="166.98212"
         y="61.890926"
         id="text11"
         transform="scale(0.88151893,1.1344056)"><tspan
           sodipodi:role="line"
           id="tspan11"
           style="font-style:normal;font-variant:normal;font-weight:normal;font-stretch:normal;font-size:8.1857px;font-family:Roboto;-inkscape-font-specification:'Roboto, @wght=500,wdth=75';font-variant-ligatures:normal;font-variant-caps:normal;font-variant-numeric:normal;font-variant-east-asian:normal;font-variation-settings:'wdth' 75, 'wght' 500;fill:#04316a;stroke-width:0"
           x="166.98212"
           y="61.890926">DL.web.js</tspan></text><path
         id="path1"
         style="font-variation-settings:'wdth' 75, 'wght' 500;fill:#dedede;stroke:#dedede;stroke-width:0;stroke-linecap:round;stroke-linejoin:round;stroke-miterlimit:3.5"
         d="m 144.21619,19.277115 a 20.460275,8.9276777 0 0 0 -20.46004,8.927909 20.460275,8.9276777 0 0 0 7.09675,6.759804 c 0.0203,1.189194 0.0888,2.373477 0.27406,3.541572 0.0594,0.374677 -0.3392,2.212648 0,2.518146 0.0599,0.05395 0.19419,0.05395 0.25403,0 0.0847,-0.07631 0.17016,-0.61079 0.25482,-0.687095 0.0599,-0.05396 0.19419,0.05395 0.25403,0 8.1e-4,-7.25e-4 0.53179,-0.708469 0.76209,-0.915886 1.16206,-1.046625 1.79787,-2.013981 2.5587,-3.200189 a 20.460275,8.9276777 0 0 0 9.00556,0.911556 20.460275,8.9276777 0 0 0 20.46084,-8.927908 20.460275,8.9276777 0 0 0 -20.46084,-8.927909 z" /><g
         id="g4"
         transform="matrix(0.08026481,0,0,0.0947417,191.16103,51.494985)" /><path
         id="path47"
         style="fill:#dedede;stroke:#dedede;stroke-width:0;stroke-linecap:round;stroke-linejoin:round;stroke-miterlimit:3.5"
         d="m 189.41937,18.600379 a 20.568749,11.636664 0 0 0 -20.5684,11.636381 20.568749,11.636664 0 0 0 20.5684,11.637093 20.568749,11.636664 0 0 0 2.78947,-0.107432 c 0.37641,0.211367 0.75253,0.422572 1.12896,0.633935 0,0.05436 -0.0343,0.124487 0,0.16293 0.0343,0.03844 0.1109,-0.03845 0.14508,0 0.0343,0.03844 -0.0343,0.124493 0,0.162931 0.0343,0.03844 0.11147,-0.03843 0.14571,0 0.0343,0.03844 -0.0343,0.125204 0,0.163643 0.0343,0.03845 0.1109,-0.03843 0.14508,0 0.008,0.0088 0.28229,0.479954 0.29016,0.488791 0.19482,0.218803 0.13282,-0.06377 0.14698,-0.10388 2e-4,-4.11e-4 4.2e-4,-0.0018 6.4e-4,-0.0021 h 6.3e-4 l 6.3e-4,-7.12e-4 6.4e-4,-7.11e-4 h 6.3e-4 6.4e-4 6.2e-4 6.4e-4 6.3e-4 v 7.11e-4 c 0.0143,0.0059 0.0508,0.07417 0.13812,0.270366 0.0217,0.04863 -0.0343,0.124487 0,0.16293 0.0684,0.07688 0.2217,-0.07688 0.29015,0 0.0582,0.06529 0.0988,0.114898 0.12481,0.151547 0.007,0.0037 0.0132,0.0074 0.0203,0.01138 0.20499,0.115109 0.21589,0.321285 0.29079,0.489504 0.003,0.0088 0.71935,0.974546 0.72604,0.978295 0.0433,0.02429 0.11089,-0.03844 0.14507,0 0.0483,0.05436 0.0967,0.435142 0.14509,0.489504 0.19953,0.224077 0.12974,-0.07731 0.14825,-0.106014 v -7.12e-4 l 6.2e-4,-7.11e-4 h 6.4e-4 l 6.3e-4,-7.12e-4 h 6.4e-4 6.3e-4 6.4e-4 l 6.3e-4,7.12e-4 h 6.3e-4 l 6.4e-4,7.11e-4 c 0.0151,0.0091 0.0518,0.07876 0.13684,0.269653 0.0217,0.04862 -0.0343,0.124493 0,0.162932 0.0343,0.03843 0.11089,-0.03844 0.14508,0 0.0485,0.05436 0.0967,0.435142 0.14508,0.489503 0.0343,0.03845 0.11147,-0.03843 0.14571,0 0.0343,0.03845 -0.0343,0.124492 0,0.16293 0.0343,0.03844 0.1109,-0.03843 0.14509,0 V 45.49891 c 0,-1.080518 -0.45809,-2.559133 0,-3.588033 0.12038,-0.270398 0.0272,-0.615377 0.17612,-0.889359 A 20.568749,11.636664 0 0 0 209.98844,30.2368 20.568749,11.636664 0 0 0 189.4194,18.600419 Z m 7.54923,28.203372 c 0,0.02693 0.006,0.06074 0.0133,0.09605 0.007,-0.03929 0.006,-0.07453 -0.0133,-0.09605 z m 0.0133,0.09605 c -0.017,0.101065 -0.083,0.22981 -0.0133,0.22981 0.0728,0 0.036,-0.122551 0.0133,-0.22981 z m -2.2123,-3.043033 c -0.15928,-0.08849 -0.22822,-0.115596 -0.24391,-0.109566 l -6.4e-4,7.11e-4 h -6.3e-4 l -6.4e-4,7.12e-4 -6.3e-4,7.11e-4 -6.2e-4,7.12e-4 v 7.11e-4 7.12e-4 l -6.4e-4,7.11e-4 v 7.12e-4 l 6.4e-4,7.11e-4 c 0.007,0.03898 0.24031,0.211671 0.28065,0.19139 l 6.3e-4,-7.1e-4 h 6.3e-4 l 6.3e-4,-7.12e-4 6.4e-4,-7.11e-4 6.3e-4,-7.12e-4 6.4e-4,-7.11e-4 c 1.3e-4,-2.95e-4 10e-4,-0.0019 10e-4,-0.0021 0.003,-0.01185 -0.007,-0.03794 -0.0387,-0.08253 z" /></g><text
       xml:space="preserve"
       style="font-style:normal;font-variant:normal;font-weight:normal;font-stretch:normal;font-size:24.8542px;line-height:0;font-family:Sans;-inkscape-font-specification:'Sans, Normal';font-variant-ligatures:normal;font-variant-caps:normal;font-variant-numeric:normal;font-variant-east-asian:normal;text-align:start;writing-mode:lr-tb;direction:ltr;text-anchor:start;fill:#04316a;stroke-width:0"
       x="85.407967"
       y="43.509289"
       id="text12"
       transform="scale(0.73189752,1.3663115)"><tspan
         sodipodi:role="line"
         x="85.407967"
         y="43.509289"
         style="font-style:normal;font-variant:normal;font-weight:normal;font-stretch:normal;font-size:8.98938px;font-family:Roboto;-inkscape-font-specification:'Roboto, Normal';font-variant-ligatures:normal;font-variant-caps:normal;font-variant-numeric:normal;font-variant-east-asian:normal;stroke-width:0"
         id="tspan19" /><tspan
         sodipodi:role="line"
         id="tspan18"
         x="85.407967"
         y="48.403309"
         style="font-style:normal;font-variant:normal;font-weight:normal;font-stretch:normal;font-size:8.98938px;font-family:Roboto;-inkscape-font-specification:'Roboto, Normal';font-variant-ligatures:normal;font-variant-caps:normal;font-variant-numeric:normal;font-variant-east-asian:normal;stroke-width:0" /></text><g
       id="g9127"
       transform="matrix(0.352778,0,0,0.352778,79.718,66.6954)"
       ns5:version="1.12.0"
       ns5:texconverter="pdflatex"
       ns5:pdfconverter="inkscape"
       ns5:text="$E = mc^2$"
       ns5:preamble="/Users/svj/Library/Application Support/org.inkscape.Inkscape/config/inkscape/extensions/textext/default_packages.tex"
       ns5:scale="1.0"
       ns5:alignment="middle center"
       ns5:inkscapeversion="1.4.2"
       ns5:jacobian_sqrt="0.352778"><defs
         id="defs1220"><g
           id="g7437"><g
             id="g1571"><path
               d="M 7.0625,-2.328125 C 7.078125,-2.375 7.109375,-2.4375 7.109375,-2.46875 c 0,0 0,-0.109375 -0.125,-0.109375 -0.09375,0 -0.109375,0.0625 -0.125,0.125 C 6.203125,-0.984375 5.84375,-0.3125 4.140625,-0.3125 H 2.6875 c -0.140625,0 -0.171875,0 -0.21875,0 -0.109375,-0.015625 -0.140625,-0.03125 -0.140625,-0.109375 0,-0.03125 0,-0.046875 0.046875,-0.21875 L 3.0625,-3.375 h 0.984375 c 0.84375,0 0.84375,0.21875 0.84375,0.46875 0,0.0625 0,0.1875 -0.0625,0.484375 C 4.8125,-2.375 4.796875,-2.34375 4.796875,-2.3125 c 0,0.046875 0.03125,0.109375 0.125,0.109375 C 5,-2.203125 5.03125,-2.25 5.078125,-2.40625 l 0.5625,-2.328125 c 0,-0.0625 -0.046875,-0.109375 -0.125,-0.109375 -0.078125,0 -0.109375,0.0625 -0.125,0.171875 -0.21875,0.765625 -0.390625,1 -1.3125,1 h -0.9375 l 0.59375,-2.40625 C 3.828125,-6.4375 3.84375,-6.46875 4.28125,-6.46875 H 5.6875 c 1.203125,0 1.515625,0.28125 1.515625,1.109375 0,0.234375 0,0.25 -0.046875,0.53125 0,0.046875 -0.015625,0.125 -0.015625,0.171875 0,0.046875 0.03125,0.125 0.125,0.125 0.109375,0 0.125,-0.0625 0.140625,-0.25 L 7.609375,-6.515625 C 7.640625,-6.78125 7.59375,-6.78125 7.34375,-6.78125 H 2.296875 c -0.1875,0 -0.296875,0 -0.296875,0.203125 0,0.109375 0.09375,0.109375 0.28125,0.109375 0.375,0 0.65625,0 0.65625,0.171875 0,0.046875 0,0.0625 -0.0625,0.25 L 1.5625,-0.78125 c -0.09375,0.390625 -0.109375,0.46875 -0.90625,0.46875 -0.171875,0 -0.28125,0 -0.28125,0.1875 C 0.375,0 0.46875,0 0.65625,0 h 5.171875 c 0.234375,0 0.25,-0.015625 0.3125,-0.171875 z m 0,0"
               id="path1691" /></g><g
             id="g4911"><path
               d="m 0.875,-0.59375 c -0.03125,0.15625 -0.09375,0.390625 -0.09375,0.4375 0,0.171875 0.140625,0.265625 0.296875,0.265625 0.125,0 0.296875,-0.078125 0.375,-0.28125 0,-0.015625 0.125,-0.484375 0.1875,-0.734375 l 0.21875,-0.890625 C 1.90625,-2.03125 1.96875,-2.25 2.03125,-2.46875 c 0.03125,-0.171875 0.109375,-0.46875 0.125,-0.5 0.140625,-0.3125 0.671875,-1.21875 1.625,-1.21875 0.453125,0 0.53125,0.375 0.53125,0.703125 0,0.25 -0.0625,0.53125 -0.140625,0.828125 L 3.890625,-1.5 3.6875,-0.75 c -0.03125,0.203125 -0.125,0.546875 -0.125,0.59375 0,0.171875 0.140625,0.265625 0.28125,0.265625 0.3125,0 0.375,-0.25 0.453125,-0.5625 0.140625,-0.5625 0.515625,-2.015625 0.59375,-2.40625 0.03125,-0.125 0.5625,-1.328125 1.65625,-1.328125 0.421875,0 0.53125,0.34375 0.53125,0.703125 0,0.5625 -0.421875,1.703125 -0.625,2.234375 -0.078125,0.234375 -0.125,0.34375 -0.125,0.546875 0,0.46875 0.34375,0.8125 0.8125,0.8125 0.9375,0 1.3125,-1.453125 1.3125,-1.53125 0,-0.109375 -0.09375,-0.109375 -0.125,-0.109375 -0.09375,0 -0.09375,0.03125 -0.140625,0.1875 -0.15625,0.53125 -0.46875,1.234375 -1.015625,1.234375 -0.171875,0 -0.25,-0.09375 -0.25,-0.328125 0,-0.25 0.09375,-0.484375 0.1875,-0.703125 0.1875,-0.53125 0.609375,-1.625 0.609375,-2.203125 0,-0.640625 -0.40625,-1.0625 -1.15625,-1.0625 -0.734375,0 -1.25,0.4375 -1.625,0.96875 0,-0.125 -0.03125,-0.46875 -0.3125,-0.703125 -0.25,-0.21875 -0.5625,-0.265625 -0.8125,-0.265625 -0.90625,0 -1.390625,0.640625 -1.5625,0.875 -0.046875,-0.578125 -0.46875,-0.875 -0.921875,-0.875 -0.453125,0 -0.640625,0.390625 -0.734375,0.5625 -0.171875,0.359375 -0.296875,0.9375 -0.296875,0.96875 0,0.109375 0.09375,0.109375 0.109375,0.109375 0.109375,0 0.109375,-0.015625 0.171875,-0.234375 0.171875,-0.703125 0.375,-1.1875 0.734375,-1.1875 0.15625,0 0.296875,0.078125 0.296875,0.453125 0,0.21875 -0.03125,0.328125 -0.15625,0.84375 z m 0,0"
               id="path3137" /></g><g
             id="g516"><path
               d="m 3.953125,-3.78125 c -0.171875,0 -0.296875,0 -0.4375,0.125 -0.171875,0.15625 -0.1875,0.328125 -0.1875,0.390625 0,0.25 0.1875,0.359375 0.375,0.359375 0.28125,0 0.546875,-0.25 0.546875,-0.640625 0,-0.484375 -0.46875,-0.859375 -1.171875,-0.859375 -1.34375,0 -2.671875,1.421875 -2.671875,2.828125 0,0.90625 0.578125,1.6875 1.625,1.6875 1.421875,0 2.25,-1.0625 2.25,-1.171875 0,-0.0625 -0.046875,-0.140625 -0.109375,-0.140625 -0.0625,0 -0.078125,0.03125 -0.140625,0.109375 -0.78125,0.984375 -1.875,0.984375 -1.984375,0.984375 -0.625,0 -0.90625,-0.484375 -0.90625,-1.09375 0,-0.40625 0.203125,-1.375 0.546875,-1.984375 0.3125,-0.578125 0.859375,-1 1.40625,-1 0.328125,0 0.71875,0.125 0.859375,0.40625 z m 0,0"
               id="path2459" /></g><g
             id="g4420"><path
               d="m 6.84375,-3.265625 c 0.15625,0 0.34375,0 0.34375,-0.1875 C 7.1875,-3.65625 7,-3.65625 6.859375,-3.65625 h -5.96875 c -0.140625,0 -0.328125,0 -0.328125,0.203125 0,0.1875 0.1875,0.1875 0.328125,0.1875 z m 0.015625,1.9375 c 0.140625,0 0.328125,0 0.328125,-0.203125 0,-0.1875 -0.1875,-0.1875 -0.34375,-0.1875 H 0.890625 c -0.140625,0 -0.328125,0 -0.328125,0.1875 0,0.203125 0.1875,0.203125 0.328125,0.203125 z m 0,0"
               id="path9960" /></g><g
             id="g3923"><path
               d="M 3.515625,-1.265625 H 3.28125 c -0.015625,0.15625 -0.09375,0.5625 -0.1875,0.625 C 3.046875,-0.59375 2.515625,-0.59375 2.40625,-0.59375 H 1.125 c 0.734375,-0.640625 0.984375,-0.84375 1.390625,-1.171875 0.515625,-0.40625 1,-0.84375 1,-1.5 0,-0.84375 -0.734375,-1.359375 -1.625,-1.359375 -0.859375,0 -1.453125,0.609375 -1.453125,1.25 0,0.34375 0.296875,0.390625 0.375,0.390625 0.15625,0 0.359375,-0.125 0.359375,-0.375 0,-0.125 -0.046875,-0.375 -0.40625,-0.375 C 0.984375,-4.21875 1.453125,-4.375 1.78125,-4.375 c 0.703125,0 1.0625,0.546875 1.0625,1.109375 0,0.609375 -0.4375,1.078125 -0.65625,1.328125 L 0.515625,-0.265625 C 0.4375,-0.203125 0.4375,-0.1875 0.4375,0 h 2.875 z m 0,0"
               id="path721" /></g></g></defs></g></g><g
     inkscape:label="Layer 1"
     inkscape:groupmode="layer"
     id="layer1"><text
       xml:space="preserve"
       transform="matrix(0.26458333,0,0,0.26458333,212.21056,2.3058468)"
       id="text5"
       style="font-style:normal;font-variant:normal;font-weight:normal;font-stretch:normal;font-size:15.1111px;font-family:Roboto;-inkscape-font-specification:'Roboto, Normal';font-variant-ligatures:normal;font-variant-caps:normal;font-variant-numeric:normal;font-variant-east-asian:normal;text-align:start;writing-mode:lr-tb;direction:ltr;white-space:pre;shape-inside:url(#rect5);display:inline;fill:#dedede;fill-opacity:1;stroke:none;stroke-width:0;stroke-dasharray:none" /></g><text
     xml:space="preserve"
     style="font-style:normal;font-variant:normal;font-weight:normal;font-stretch:normal;font-size:3.88056px;line-height:1.1;font-family:Roboto;-inkscape-font-specification:'Roboto, Normal';font-variant-ligatures:normal;font-variant-caps:normal;font-variant-numeric:normal;font-variant-east-asian:normal;text-align:start;writing-mode:lr-tb;direction:ltr;text-anchor:start;display:inline;fill:#000000;stroke-width:0"
     x="28.827196"
     y="16.192881"
     id="text2"><tspan
       sodipodi:role="line"
       id="tspan2"
       style="font-style:normal;font-variant:normal;font-weight:normal;font-stretch:normal;font-size:3.88056px;line-height:1.1;font-family:Roboto;-inkscape-font-specification:'Roboto, Normal';font-variant-ligatures:normal;font-variant-caps:normal;font-variant-numeric:normal;font-variant-east-asian:normal;stroke-width:0"
       x="28.827196"
       y="16.192881">Detect objects </tspan><tspan
       sodipodi:role="line"
       style="font-style:normal;font-variant:normal;font-weight:normal;font-stretch:normal;font-size:3.88056px;line-height:1.1;font-family:Roboto;-inkscape-font-specification:'Roboto, Normal';font-variant-ligatures:normal;font-variant-caps:normal;font-variant-numeric:normal;font-variant-east-asian:normal;stroke-width:0"
       x="28.827196"
       y="20.461496"
       id="tspan3">in this Image</tspan></text><text
     xml:space="preserve"
     style="font-style:normal;font-variant:normal;font-weight:normal;font-stretch:normal;font-size:3.88056px;line-height:1.1;font-family:Roboto;-inkscape-font-specification:'Roboto, Normal';font-variant-ligatures:normal;font-variant-caps:normal;font-variant-numeric:normal;font-variant-east-asian:normal;text-align:start;writing-mode:lr-tb;direction:ltr;text-anchor:start;display:inline;fill:#000000;stroke-width:0"
     x="9.2296724"
     y="60.964333"
     id="text2-0"><tspan
       sodipodi:role="line"
       id="tspan2-0"
       style="font-style:normal;font-variant:normal;font-weight:normal;font-stretch:normal;font-size:3.88056px;line-height:1.1;font-family:Roboto;-inkscape-font-specification:'Roboto, Normal';font-variant-ligatures:normal;font-variant-caps:normal;font-variant-numeric:normal;font-variant-east-asian:normal;stroke-width:0"
       x="9.2296724"
       y="60.964333">Which plant</tspan><tspan
       sodipodi:role="line"
       style="font-style:normal;font-variant:normal;font-weight:normal;font-stretch:normal;font-size:3.88056px;line-height:1.1;font-family:Roboto;-inkscape-font-specification:'Roboto, Normal';font-variant-ligatures:normal;font-variant-caps:normal;font-variant-numeric:normal;font-variant-east-asian:normal;stroke-width:0"
       x="9.2296724"
       y="65.232948"
       id="tspan3-8"> is this ?</tspan></text><text
     xml:space="preserve"
     style="font-style:normal;font-variant:normal;font-weight:normal;font-stretch:normal;font-size:3.88056px;line-height:1.1;font-family:Roboto;-inkscape-font-specification:'Roboto, Normal';font-variant-ligatures:normal;font-variant-caps:normal;font-variant-numeric:normal;font-variant-east-asian:normal;text-align:start;writing-mode:lr-tb;direction:ltr;text-anchor:start;display:inline;fill:#000000;stroke-width:0"
     x="72.783501"
     y="16.105366"
     id="text2-1"><tspan
       sodipodi:role="line"
       id="tspan2-6"
       style="font-style:normal;font-variant:normal;font-weight:normal;font-stretch:normal;font-size:3.88056px;line-height:1.1;font-family:Roboto;-inkscape-font-specification:'Roboto, Normal';font-variant-ligatures:normal;font-variant-caps:normal;font-variant-numeric:normal;font-variant-east-asian:normal;stroke-width:0"
       x="72.783501"
       y="16.105366">Segment the </tspan><tspan
       sodipodi:role="line"
       style="font-style:normal;font-variant:normal;font-weight:normal;font-stretch:normal;font-size:3.88056px;line-height:1.1;font-family:Roboto;-inkscape-font-specification:'Roboto, Normal';font-variant-ligatures:normal;font-variant-caps:normal;font-variant-numeric:normal;font-variant-east-asian:normal;stroke-width:0"
       x="72.783501"
       y="20.373981"
       id="tspan3-1">glotis in these</tspan><tspan
       sodipodi:role="line"
       style="font-style:normal;font-variant:normal;font-weight:normal;font-stretch:normal;font-size:3.88056px;line-height:1.1;font-family:Roboto;-inkscape-font-specification:'Roboto, Normal';font-variant-ligatures:normal;font-variant-caps:normal;font-variant-numeric:normal;font-variant-east-asian:normal;stroke-width:0"
       x="72.783501"
       y="24.642597"
       id="tspan61"> videos</tspan></text><text
     xml:space="preserve"
     transform="matrix(0.26458333,0,0,0.26458333,212.21056,2.3058468)"
     id="text4"
     style="font-style:normal;font-variant:normal;font-weight:normal;font-stretch:normal;font-size:15.1111px;font-family:Roboto;-inkscape-font-specification:'Roboto, Normal';font-variant-ligatures:normal;font-variant-caps:normal;font-variant-numeric:normal;font-variant-east-asian:normal;text-align:start;writing-mode:lr-tb;direction:ltr;white-space:pre;shape-inside:url(#rect4);display:inline;fill:#dedede;fill-opacity:1;stroke:none;stroke-width:0;stroke-dasharray:none" /><metadata
     id="metadata7"><rdf:RDF><cc:Work
         rdf:about=""><dc:title>Figure</dc:title><dc:creator><cc:Agent><dc:title>SVJ</dc:title></cc:Agent></dc:creator><cc:license
           rdf:resource="http://creativecommons.org/licenses/by-nc-sa/4.0/" /></cc:Work><cc:License
         rdf:about="http://creativecommons.org/licenses/by-nc-sa/4.0/"><cc:permits
           rdf:resource="http://creativecommons.org/ns#Reproduction" /><cc:permits
           rdf:resource="http://creativecommons.org/ns#Distribution" /><cc:requires
           rdf:resource="http://creativecommons.org/ns#Notice" /><cc:requires
           rdf:resource="http://creativecommons.org/ns#Attribution" /><cc:prohibits
           rdf:resource="http://creativecommons.org/ns#CommercialUse" /><cc:permits
           rdf:resource="http://creativecommons.org/ns#DerivativeWorks" /><cc:requires
           rdf:resource="http://creativecommons.org/ns#ShareAlike" /></cc:License></rdf:RDF></metadata><g
     inkscape:groupmode="layer"
     id="layer4"
     inkscape:label="Layer 2"><g
       style="fill:#000000"
       id="g51"
       transform="matrix(0.49575928,0,0,0.47353082,17.507031,28.720192)"><path
         id="user_1_"
         d="M 15.999148 0.63954162 C 11.230148 0.63954162 7.3506092 4.5190051 7.3506092 9.2870051 C 7.3506092 12.377005 9.0080442 15.212499 11.642044 16.751499 C 5.2140442 18.687499 0.63983477 24.539516 0.63983477 30.999516 L 1.3601121 30.999516 C 1.3601121 24.567516 6.1368966 18.767663 12.720897 17.207663 C 12.870897 17.171663 12.982082 17.045186 12.996082 16.891186 C 13.010082 16.738186 12.925481 16.591874 12.784481 16.528874 C 9.9224811 15.255874 8.0729712 12.413096 8.0729712 9.2880964 C 8.0729712 4.9170964 11.629233 1.3608911 16.001233 1.3608911 C 20.372233 1.3608911 23.928453 4.9170964 23.928453 9.2880964 C 23.928453 12.413096 22.078985 15.255874 19.217985 16.528874 C 19.076985 16.591874 18.991384 16.738186 19.006384 16.891186 C 19.020384 17.045186 19.130527 17.171663 19.280527 17.207663 C 25.862527 18.767663 30.64027 24.567516 30.64027 30.999516 L 31.359505 30.999516 C 31.359505 24.539516 26.786253 18.687499 20.356253 16.751499 C 22.990253 15.212499 24.645603 12.377005 24.645603 9.2870051 C 24.645603 4.5190051 20.767148 0.63954162 15.999148 0.63954162 z "
         style="fill:#6ea8fe;fill-opacity:1" /><path
         id="_Transparent_Rectangle"
         style="fill:none"
         d="M 0,0 H 32 V 32 H 0 Z" /></g><g
       style="fill:#000000"
       id="g52"
       transform="matrix(0.686924,0,0,0.61579294,79.507536,31.558512)"><path
         id="doctor-patient_1_"
         d="m 31.36,30 h -0.72 v -9 c 0,-3.358 -2.151,-6.289 -5.354,-7.292 C 25.148,13.665 25.05,13.543 25.035,13.4 25.021,13.256 25.094,13.118 25.22,13.049 26.712,12.229 27.64,10.677 27.64,9 27.64,6.441 25.559,4.36 23,4.36 c -2.559,0 -4.64,2.081 -4.64,4.64 0,1.677 0.928,3.229 2.421,4.049 0.126,0.069 0.198,0.208 0.185,0.351 -0.015,0.144 -0.113,0.265 -0.251,0.308 C 17.512,14.711 15.36,17.642 15.36,21 v 9 h -0.72 v -9 c 0,-1.389 0.336,-2.711 0.944,-3.877 C 15.017,16.16 14.258,15.345 13.36,14.722 V 17 c 0,2.283 -1.764,4.162 -4,4.346 v 2.329 c 0.854,0.168 1.5,0.923 1.5,1.825 0,1.025 -0.834,1.86 -1.86,1.86 -1.026,0 -1.86,-0.835 -1.86,-1.86 0,-0.902 0.646,-1.657 1.5,-1.825 V 21.346 C 6.404,21.162 4.64,19.284 4.64,17 V 14.719 C 2.617,16.116 1.36,18.433 1.36,21 v 9 H 0.64 v -9 c 0,-3.426 2.045,-6.444 5.161,-7.727 C 4.453,12.269 3.64,10.69 3.64,9 3.64,6.945 4.813,5.079 6.647,4.183 6.643,4.123 6.64,4.062 6.64,4 6.64,2.699 7.699,1.64 9,1.64 c 1.301,0 2.36,1.059 2.36,2.36 0,0.062 -0.002,0.123 -0.007,0.183 1.834,0.896 3.007,2.762 3.007,4.817 0,1.69 -0.812,3.269 -2.162,4.274 1.555,0.642 2.872,1.732 3.797,3.146 0.903,-1.383 2.215,-2.491 3.807,-3.146 C 18.452,12.269 17.64,10.69 17.64,9 c 0,-2.956 2.405,-5.36 5.36,-5.36 2.955,0 5.36,2.404 5.36,5.36 0,1.69 -0.812,3.269 -2.162,4.273 3.116,1.283 5.162,4.302 5.162,7.727 z M 9,24.36 c -0.628,0 -1.14,0.511 -1.14,1.14 0,0.629 0.512,1.14 1.14,1.14 0.628,0 1.14,-0.511 1.14,-1.14 0,-0.629 -0.512,-1.14 -1.14,-1.14 z M 5.36,14.278 V 17 c 0,2.007 1.633,3.64 3.64,3.64 2.007,0 3.64,-1.633 3.64,-3.64 V 14.28 C 12.211,14.049 11.758,13.857 11.285,13.709 11.147,13.666 11.049,13.544 11.034,13.401 11.02,13.257 11.093,13.119 11.219,13.05 12.712,12.229 13.64,10.677 13.64,9 13.64,7.275 12.685,5.704 11.181,4.903 10.825,5.757 9.982,6.36 9,6.36 8.018,6.36 7.175,5.757 6.819,4.903 5.314,5.704 4.36,7.275 4.36,9 c 0,1.677 0.928,3.229 2.421,4.049 0.126,0.069 0.199,0.208 0.185,0.351 -0.015,0.144 -0.113,0.265 -0.251,0.308 -0.476,0.149 -0.929,0.341 -1.355,0.57 z M 9,2.36 C 8.096,2.36 7.36,3.096 7.36,4 7.36,4.904 8.096,5.64 9,5.64 9.904,5.64 10.64,4.904 10.64,4 10.64,3.096 9.904,2.36 9,2.36 Z m 14,23 c -0.092,0 -0.185,-0.035 -0.255,-0.105 l -2.973,-2.973 c -0.4,-0.401 -0.622,-0.934 -0.625,-1.499 -0.002,-0.572 0.22,-1.111 0.625,-1.518 0.402,-0.402 0.937,-0.624 1.505,-0.626 0.002,0 0.003,0 0.005,0 0.569,0 1.105,0.223 1.509,0.625 l 0.209,0.211 0.209,-0.21 c 0.807,-0.803 2.212,-0.805 3.019,0 0.413,0.414 0.635,0.963 0.624,1.548 -0.01,0.555 -0.231,1.077 -0.624,1.47 l -2.973,2.973 C 23.185,25.325 23.092,25.36 23,25.36 Z m -1.718,-6 c -0.001,0 -0.002,0 -0.003,0 -0.377,0 -0.731,0.147 -0.997,0.414 -0.269,0.269 -0.416,0.626 -0.414,1.005 0.001,0.375 0.148,0.729 0.414,0.993 L 23,24.491 25.718,21.772 c 0.261,-0.26 0.407,-0.605 0.413,-0.973 0.008,-0.388 -0.139,-0.752 -0.413,-1.025 -0.534,-0.536 -1.467,-0.535 -1.999,0 l -0.464,0.464 c -0.141,0.141 -0.369,0.141 -0.51,0 L 22.281,19.774 C 22.015,19.507 21.659,19.36 21.282,19.36 Z"
         style="fill:#6ea8fe;fill-opacity:1" /><rect
         id="_Transparent_Rectangle-2"
         style="fill:none"
         width="32"
         height="32"
         x="0"
         y="0" /></g></g><g
     inkscape:groupmode="layer"
     id="layer5"
     inkscape:label="Layer 3" /><path
     style="fill:#dedede;stroke:#dedede;stroke-width:0;stroke-linecap:round;stroke-linejoin:round;stroke-miterlimit:3.5"
     d="m 25.174548,68.191212 c 2.181114,1.325198 -2.521123,-1.633876 1.212043,0.606023 0.25721,0.154326 0.481944,0.468231 0.757529,0.606023 0.09182,0.04591 0.391027,0.08802 0.454514,0.151506 0.03571,0.03571 -0.03571,0.115795 0,0.151505 0.09541,0.09541 0.87008,0.415563 1.06054,0.606021 0.03571,0.03571 -0.0226,0.106336 0,0.151505 0.315264,0.630531 -0.01045,-0.161964 0.303011,0.151506 0.03571,0.03571 -0.03571,0.115795 0,0.151506 0.03571,0.03571 0.106334,-0.0226 0.151504,0 0.146423,0.07321 0.532812,0.459599 0.606022,0.606023 0.0226,0.04517 -0.03571,0.115794 0,0.151505 0.03571,0.03571 0.115795,-0.03571 0.151506,0 0.141518,0.141518 0.161494,0.616008 0.303011,0.757526 0.07575,0.07575 0.227259,0.07575 0.303012,0.151506 0.124867,0.124867 0.151506,0.567894 0.151506,0.303011 0,-0.755803 -0.175221,-4.194728 0,-4.545166 0.06388,-0.127759 0.23913,-0.175249 0.303008,-0.303008 0.04574,-0.09148 -0.07004,-0.384482 0,-0.454518 0.0053,-0.0053 0.400574,-0.09756 0.454518,-0.151505 0.114519,-0.11452 0.06573,-0.303012 0.303011,-0.303012"
     id="path53" /><g
     style="fill:#000000"
     id="g53"
     transform="matrix(0.70016162,0,0,0.67175434,28.037869,74.972798)"><path
       id="farmer--01_1_"
       d="M 23.36,30 H 22.64 V 21.36 H 15.36 V 30 H 14.64 V 17.36 H 5.36 V 30 H 4.64 V 27.36 H 4 C 3.25,27.36 2.64,26.75 2.64,26 V 14.5 c 0,-2.092 1.768,-3.86 3.86,-3.86 h 7 c 2.056,0 3.86,1.804 3.86,3.86 v 4.14 h 5.279 V 12.36 H 20 c -0.199,0 -0.36,-0.161 -0.36,-0.36 V 6 c 0,-0.056 0.014,-0.111 0.038,-0.161 C 19.723,5.749 20.803,3.64 23,3.64 c 2.197,0 3.277,2.109 3.322,2.199 0.025,0.05 0.038,0.105 0.038,0.161 v 6 c 0,0.199 -0.161,0.36 -0.36,0.36 H 23.36 Z M 6.5,11.36 c -1.702,0 -3.14,1.438 -3.14,3.14 V 26 c 0,0.353 0.287,0.64 0.64,0.64 H 4.64 V 13 h 0.72 v 3.64 h 2.28 v -5.28 c 0,0 -1.14,0 -1.14,0 z m 8.86,9.28 h 7.28 V 19.36 H 17 c -0.199,0 -0.36,-0.161 -0.36,-0.36 v -4.5 c 0,-1.644 -1.497,-3.14 -3.14,-3.14 h -1.14 v 5.28 h 2.28 V 13 h 0.72 z m -7,-4 h 3.28 V 11.36 H 8.36 Z m 12,-5 h 5.279 V 6.092 C 25.449,5.761 24.549,4.36 23,4.36 c -1.549,0 -2.449,1.401 -2.64,1.732 z M 13,24.36 H 7 C 6.801,24.36 6.64,24.199 6.64,24 v -5 c 0,-0.199 0.161,-0.36 0.36,-0.36 h 6 c 0.199,0 0.36,0.161 0.36,0.36 v 5 c 0,0.199 -0.161,0.36 -0.36,0.36 z M 7.36,23.64 h 5.28 V 19.36 H 7.36 Z M 10,9.36 c -3.08,0 -3.336,-2.567 -3.358,-4 H 5 V 4.64 h 1.642 c 0.024,-1.973 0.327,-3 3.358,-3 1.571,0 2.442,0.266 2.913,0.889 0.397,0.526 0.442,1.232 0.447,2.111 H 15 V 5.36 H 13.358 C 13.35,6.044 13.296,6.919 12.952,7.673 12.443,8.792 11.45,9.36 10,9.36 Z m -2.637,-4 C 7.398,7.008 7.729,8.64 10,8.64 c 1.159,0 1.91,-0.414 2.297,-1.265 0.287,-0.631 0.333,-1.387 0.341,-2.015 0,0 -5.275,0 -5.275,0 z M 7.361,4.64 h 5.278 C 12.635,3.876 12.601,3.313 12.337,2.963 12.023,2.546 11.302,2.36 10,2.36 7.527,2.36 7.371,2.943 7.361,4.64 Z"
       style="fill:#6ea8fe;fill-opacity:1" /><rect
       id="_Transparent_Rectangle-3"
       style="fill:none"
       width="32"
       height="32"
       x="0"
       y="0" /></g><g
     style="fill:#000000"
     id="g54"
     transform="matrix(0.59600159,0,0,0.56759431,80.848653,89.677396)"><path
       id="employee--insights_1_"
       d="m 23.5,31.36 c -4.334,0 -7.86,-3.526 -7.86,-7.86 0,-3.687 2.551,-6.789 5.981,-7.633 1.485,-1.494 2.302,-3.471 2.302,-5.58 V 10.2 C 21.326,9.797 18.944,8.653 16.996,6.874 c -2.45,2.236 -5.604,3.47 -8.928,3.486 0.028,3.097 1.871,5.905 4.71,7.168 0.141,0.063 0.226,0.209 0.212,0.362 -0.014,0.154 -0.125,0.281 -0.275,0.317 C 5.18,19.993 1.36,24.298 1.36,31 H 0.64 C 0.64,24.201 4.334,19.745 11.623,17.743 11.418,17.623 11.22,17.495 11.027,17.36 H 6 C 5.801,17.36 5.64,17.199 5.64,17 V 11 C 5.64,5.288 10.288,0.64 16,0.64 21.713,0.64 26.36,5.287 26.36,11 v 5.179 c 2.924,1.146 5,3.996 5,7.321 0,1.087 -0.222,2.123 -0.623,3.065 0.413,1.344 0.623,2.834 0.623,4.435 h -0.72 c 0,-1.238 -0.13,-2.404 -0.388,-3.479 -1.373,2.297 -3.886,3.839 -6.752,3.839 z m -5.14,-2.909 c 1.299,1.349 3.123,2.188 5.14,2.188 2.017,0 3.841,-0.84 5.14,-2.188 V 24.5 h 0.721 v 3.075 c 0.807,-1.156 1.279,-2.562 1.279,-4.075 0,-0.048 0,-0.096 -0.001,-0.144 -0.047,0.002 -0.095,0.004 -0.143,0.004 -1.577,0 -2.86,-1.283 -2.86,-2.86 0,-0.79 0.325,-1.535 0.887,-2.07 -1.291,-1.278 -3.066,-2.07 -5.022,-2.07 -1.579,0 -3.041,0.516 -4.225,1.387 1.202,0.339 2.085,1.444 2.085,2.753 0,1.577 -1.283,2.86 -2.86,2.86 -0.787,0 -1.534,-0.332 -2.066,-0.886 -0.048,0.335 -0.074,0.677 -0.074,1.025 0,1.514 0.474,2.919 1.28,4.075 V 24.5 h 0.721 v 3.951 z m 10.648,-9.489 c -0.413,0.399 -0.651,0.952 -0.651,1.538 0,1.18 0.96,2.14 2.14,2.14 0.031,0 0.062,0 0.092,-0.002 -0.168,-1.386 -0.735,-2.651 -1.581,-3.676 z m -12.376,2.583 c 0.379,0.679 1.084,1.095 1.868,1.095 1.18,0 2.14,-0.96 2.14,-2.14 0,-1.164 -0.934,-2.113 -2.091,-2.14 -0.896,0.864 -1.567,1.957 -1.917,3.185 z M 6.36,16.64 h 3.775 C 8.39,15.029 7.348,12.738 7.348,10.287 V 10 C 7.348,9.903 7.387,9.811 7.456,9.743 7.525,9.675 7.625,9.637 7.715,9.64 H 7.901 8 c 3.275,0 6.382,-1.25 8.747,-3.52 0.139,-0.134 0.359,-0.134 0.498,0 1.958,1.88 4.407,3.059 7.085,3.411 0.179,0.023 0.313,0.176 0.313,0.357 v 0.399 c 0,1.984 -0.664,3.863 -1.886,5.388 0.966,-0.092 1.971,0.003 2.882,0.261 V 11 c 0,-5.315 -4.324,-9.64 -9.64,-9.64 C 10.683,1.36 6.36,5.685 6.36,11 Z M 22.5,29.36 c -1.577,0 -2.86,-1.283 -2.86,-2.86 0,-1.577 1.283,-2.86 2.86,-2.86 1.577,0 2.86,1.283 2.86,2.86 0,1.577 -1.283,2.86 -2.86,2.86 z m 0,-5 c -1.18,0 -2.14,0.96 -2.14,2.14 0,1.18 0.96,2.14 2.14,2.14 1.18,0 2.14,-0.96 2.14,-2.14 0,-1.18 -0.96,-2.14 -2.14,-2.14 z m 4.86,4.14 h -0.72 v -4 h 0.721 z m -1,-6 h -0.72 v -4 h 0.721 z m -3,0 h -0.72 v -4 h 0.721 z"
       style="fill:#6ea8fe;fill-opacity:1" /><rect
       id="_Transparent_Rectangle-6"
       style="fill:none"
       width="32"
       height="32"
       x="0"
       y="0" /></g><text
     xml:space="preserve"
     style="font-style:normal;font-variant:normal;font-weight:normal;font-stretch:normal;font-size:3.52778px;line-height:1.1;font-family:Roboto;-inkscape-font-specification:'Roboto, Normal';font-variant-ligatures:normal;font-variant-caps:normal;font-variant-numeric:normal;font-variant-east-asian:normal;text-align:start;writing-mode:lr-tb;direction:ltr;text-anchor:start;display:inline;fill:#000000;stroke-width:0"
     x="65.475838"
     y="71.203125"
     id="text2-1-1"><tspan
       sodipodi:role="line"
       style="font-style:normal;font-variant:normal;font-weight:normal;font-stretch:normal;font-size:3.52778px;line-height:1.1;font-family:Roboto;-inkscape-font-specification:'Roboto, Normal';font-variant-ligatures:normal;font-variant-caps:normal;font-variant-numeric:normal;font-variant-east-asian:normal;stroke-width:0"
       x="65.475838"
       y="71.203125"
       id="tspan3-1-5">Run DeepD3</tspan><tspan
       sodipodi:role="line"
       style="font-style:normal;font-variant:normal;font-weight:normal;font-stretch:normal;font-size:3.52778px;line-height:1.1;font-family:Roboto;-inkscape-font-specification:'Roboto, Normal';font-variant-ligatures:normal;font-variant-caps:normal;font-variant-numeric:normal;font-variant-east-asian:normal;stroke-width:0"
       x="65.475838"
       y="75.083687"
       id="tspan55"> segmentation </tspan><tspan
       sodipodi:role="line"
       style="font-style:normal;font-variant:normal;font-weight:normal;font-stretch:normal;font-size:3.52778px;line-height:1.1;font-family:Roboto;-inkscape-font-specification:'Roboto, Normal';font-variant-ligatures:normal;font-variant-caps:normal;font-variant-numeric:normal;font-variant-east-asian:normal;stroke-width:0"
       x="65.475838"
       y="78.964241"
       id="tspan54">model on this</tspan><tspan
       sodipodi:role="line"
       style="font-style:normal;font-variant:normal;font-weight:normal;font-stretch:normal;font-size:3.52778px;line-height:1.1;font-family:Roboto;-inkscape-font-specification:'Roboto, Normal';font-variant-ligatures:normal;font-variant-caps:normal;font-variant-numeric:normal;font-variant-east-asian:normal;stroke-width:0"
       x="65.475838"
       y="82.844803"
       id="tspan58"> microscopy </tspan><tspan
       sodipodi:role="line"
       style="font-style:normal;font-variant:normal;font-weight:normal;font-stretch:normal;font-size:3.52778px;line-height:1.1;font-family:Roboto;-inkscape-font-specification:'Roboto, Normal';font-variant-ligatures:normal;font-variant-caps:normal;font-variant-numeric:normal;font-variant-east-asian:normal;stroke-width:0"
       x="65.475838"
       y="86.725357"
       id="tspan59">stack </tspan></text><text
     xml:space="preserve"
     style="font-style:normal;font-variant:normal;font-weight:normal;font-stretch:normal;font-size:3.52777px;line-height:1.1;font-family:Roboto;-inkscape-font-specification:'Roboto, Normal';font-variant-ligatures:normal;font-variant-caps:normal;font-variant-numeric:normal;font-variant-east-asian:normal;text-align:center;writing-mode:lr-tb;direction:ltr;text-anchor:middle;fill:#dedede;stroke:#dedede;stroke-width:0;stroke-linecap:round;stroke-linejoin:round;stroke-miterlimit:3.5"
     x="86.206627"
     y="74.086182"
     id="text56"><tspan
       sodipodi:role="line"
       id="tspan56"
       style="stroke-width:0"
       x="86.206627"
       y="74.086182"></tspan><tspan
       sodipodi:role="line"
       style="stroke-width:0"
       id="tspan57"
       x="86.206627"
       y="77.966728" /></text></svg>
